<?xml version="1.0" encoding="UTF-8" standalone="no"?>
<svg
   xmlns:dc="http://purl.org/dc/elements/1.1/"
   xmlns:cc="http://creativecommons.org/ns#"
   xmlns:rdf="http://www.w3.org/1999/02/22-rdf-syntax-ns#"
   xmlns:svg="http://www.w3.org/2000/svg"
   xmlns="http://www.w3.org/2000/svg"
   xmlns:xlink="http://www.w3.org/1999/xlink"
   xmlns:sodipodi="http://sodipodi.sourceforge.net/DTD/sodipodi-0.dtd"
   xmlns:inkscape="http://www.inkscape.org/namespaces/inkscape"
   enable-background="new 0 0 100 100"
   height="100px"
   version="1.1"
   viewBox="0 0 100 100"
   width="100px"
   xml:space="preserve"
   id="svg6"
   sodipodi:docname="black_knight.svg"
   inkscape:version="0.92.2 (5c3e80d, 2017-08-06)"><metadata
     id="metadata12"><rdf:RDF><cc:Work
         rdf:about=""><dc:format>image/svg+xml</dc:format><dc:type
           rdf:resource="http://purl.org/dc/dcmitype/StillImage" /></cc:Work></rdf:RDF></metadata><defs
     id="defs10" /><sodipodi:namedview
     pagecolor="#ffffff"
     bordercolor="#666666"
     borderopacity="1"
     objecttolerance="10"
     gridtolerance="10"
     guidetolerance="10"
     inkscape:pageopacity="0"
     inkscape:pageshadow="2"
     inkscape:window-width="3840"
     inkscape:window-height="2066"
     id="namedview8"
     showgrid="false"
     inkscape:zoom="13.350176"
     inkscape:cx="50"
     inkscape:cy="50"
     inkscape:window-x="-11"
     inkscape:window-y="-11"
     inkscape:window-maximized="1"
     inkscape:current-layer="black_exp" /><g
     id="white_exp" /><g
     id="black_exp"><path
       sodipodi:type="inkscape:offset"
       inkscape:radius="0.75278974"
       inkscape:original="M 51 9 L 51 19 L 50 19 L 50 15 L 43 15 C 39.134 15 36 18.134 36 22 C 36 23.831 20 29.76 20 38 C 20 41.38 22.395078 44.199469 25.580078 44.855469 L 31.375 40.21875 L 32.623047 41.78125 L 27.148438 46.160156 C 27.675437 48.357156 29.645 50 32 50 C 34.527 50 36.621125 48.116687 36.953125 45.679688 L 42.802734 43.171875 C 45.746734 45.621875 50.140391 45.468031 52.900391 42.707031 C 55.824391 39.783031 55.824391 35.025562 52.900391 32.101562 L 53.607422 31.394531 C 55.212422 32.999531 56.097656 35.134297 56.097656 37.404297 C 56.097656 38.733297 55.785891 40.012922 55.212891 41.169922 C 55.016891 41.565922 54.78725 41.944594 54.53125 42.308594 C 54.50725 42.342594 54.481031 42.374203 54.457031 42.408203 C 54.201031 42.761203 53.922422 43.099062 53.607422 43.414062 C 53.331422 43.690063 53.037375 43.938969 52.734375 44.167969 C 52.664375 44.220969 52.591484 44.268359 52.521484 44.318359 C 52.269484 44.496359 52.011094 44.661547 51.746094 44.810547 C 50.238094 45.653547 48.529563 46.013188 46.851562 45.867188 C 45.943562 52.159187 40.545 57 34 57 L 36 79 L 64 79 C 64 69.043 66.698156 60.436734 69.535156 53.177734 C 64.908156 57.411734 58.751 60 52 60 L 52 59 C 65.785 59 77 47.785 77 34 C 77 20.215 65.785 9 52 9 L 51 9 z M 45.484375 20.142578 L 46.513672 21.857422 L 41.513672 24.857422 L 40.484375 23.142578 L 45.484375 20.142578 z M 26.445312 36.167969 L 27.554688 37.832031 L 24.554688 39.832031 L 23.445312 38.167969 L 26.445312 36.167969 z M 31 80 C 29.9 80 29 80.9 29 82 C 29 83.1 29.9 84 31 84 L 69 84 C 70.1 84 71 83.1 71 82 C 71 80.9 70.1 80 69 80 L 31 80 z M 28 85 C 25.8 85 24 86.8 24 89 C 24 91.2 25.8 93 28 93 L 72 93 C 74.2 93 76 91.2 76 89 C 76 86.8 74.2 85 72 85 L 28 85 z "
       xlink:href="#path3"
       id="path14"
       inkscape:href="#path3"
       d="M 51,8.2480469 A 0.75286501,0.75286501 0 0 0 50.248047,9 v 5.291016 A 0.75286501,0.75286501 0 0 0 50,14.248047 h -7 c -4.272836,0 -7.751953,3.479117 -7.751953,7.751953 0,-0.159653 0.04636,-0.157309 -0.01563,-0.08008 -0.06198,0.07723 -0.198377,0.212249 -0.392578,0.36914 -0.388402,0.313783 -0.998953,0.721937 -1.740235,1.1875 -1.482562,0.931127 -3.497181,2.110107 -5.52539,3.5 -2.028209,1.389894 -4.074583,2.989961 -5.644531,4.814454 -1.569949,1.824492 -2.681641,3.905363 -2.681641,6.208984 0,3.735619 2.650299,6.866818 6.179687,7.59375 a 0.75286501,0.75286501 0 0 0 0.623047,-0.150391 l 5.205078,-4.166015 0.308594,0.386718 -4.886719,3.908204 a 0.75286501,0.75286501 0 0 0 -0.261718,0.763672 c 0.606377,2.52792 2.878887,4.416015 5.583984,4.416015 2.729802,0 4.966461,-1.944214 5.546875,-4.507812 l 5.228516,-2.242188 c 1.056825,0.769147 2.240283,1.201393 3.478515,1.40625 a 0.75286501,0.75286501 0 0 0 -0.146484,0.351563 C 45.251874,51.688299 40.173814,56.248047 34,56.248047 a 0.75286501,0.75286501 0 0 0 -0.75,0.820312 l 2,22 a 0.75286501,0.75286501 0 0 0 0.04102,0.179688 H 31 c -1.510613,0 -2.751953,1.24134 -2.751953,2.751953 0,0.949942 0.519481,1.752554 1.259765,2.248047 H 28 c -2.610613,0 -4.751953,2.14134 -4.751953,4.751953 0,2.610613 2.14134,4.751953 4.751953,4.751953 h 44 c 2.610613,0 4.751953,-2.14134 4.751953,-4.751953 0,-2.610613 -2.14134,-4.751953 -4.751953,-4.751953 H 70.492188 C 71.232472,83.752554 71.751953,82.949942 71.751953,82 71.751953,80.489387 70.510613,79.248047 69,79.248047 H 64.708984 A 0.75286501,0.75286501 0 0 0 64.751953,79 c 0,-9.821006 2.661902,-18.326997 5.484375,-25.548828 A 0.75286501,0.75286501 0 0 0 69.84375,52.492188 C 74.700303,47.804717 77.751953,41.261883 77.751953,34 77.751953,19.806704 66.193296,8.2480469 52,8.2480469 Z m -5.773438,12.9277341 0.25586,0.421875 -3.710938,2.226563 -0.253906,-0.421875 z m -18.990234,16.03711 0.273438,0.410156 -1.746094,1.166015 -0.273438,-0.412109 z"
       style="fill:#ffffff" /><path
       d="m 31.375,40.219 1.249,1.562 -5.475,4.379 C 27.676,48.357 29.645,50 32,50 c 2.527,0 4.622,-1.884 4.954,-4.321 l 5.849,-2.507 c 2.944,2.45 7.337,2.296 10.097,-0.465 2.924,-2.924 2.924,-7.682 0,-10.606 l 0.707,-0.707 c 1.605,1.605 2.49,3.74 2.49,6.01 0,1.329 -0.311,2.608 -0.884,3.765 v 0 c -0.196,0.396 -0.425,0.775 -0.681,1.139 -0.024,0.034 -0.05,0.066 -0.074,0.1 -0.256,0.353 -0.536,0.692 -0.851,1.007 -0.276,0.276 -0.57,0.523 -0.873,0.752 -0.07,0.053 -0.143,0.101 -0.213,0.151 -0.252,0.178 -0.51,0.343 -0.775,0.492 -1.508,0.843 -3.216,1.203 -4.894,1.057 C 45.944,52.159 40.545,57 34,57 l 2,22 H 64 C 64,69.043 66.698,60.437 69.535,53.178 64.908,57.412 58.751,60 52,60 V 59 C 65.785,59 77,47.785 77,34 77,20.215 65.785,9 52,9 h -1 v 10 h -1 v -4 h -7 c -3.866,0 -7,3.134 -7,7 0,1.831 -16,7.76 -16,16 0,3.38 2.395,6.199 5.58,6.855 z m 14.11,-20.076 1.029,1.715 -5,3 -1.029,-1.715 z m -22.04,18.025 3,-2 1.109,1.664 -3,2 z M 69,80 c 1.1,0 2,0.9 2,2 0,1.1 -0.9,2 -2,2 H 31 c -1.1,0 -2,-0.9 -2,-2 0,-1.1 0.9,-2 2,-2 z m 7,9 c 0,2.2 -1.8,4 -4,4 H 28 c -2.2,0 -4,-1.8 -4,-4 0,-2.2 1.8,-4 4,-4 h 44 c 2.2,0 4,1.8 4,4 z"
       id="path3"
       inkscape:connector-curvature="0" /></g></svg>