<?xml version="1.0" encoding="UTF-8" standalone="no"?>
<svg
   xmlns:dc="http://purl.org/dc/elements/1.1/"
   xmlns:cc="http://creativecommons.org/ns#"
   xmlns:rdf="http://www.w3.org/1999/02/22-rdf-syntax-ns#"
   xmlns:svg="http://www.w3.org/2000/svg"
   xmlns="http://www.w3.org/2000/svg"
   xmlns:xlink="http://www.w3.org/1999/xlink"
   xmlns:sodipodi="http://sodipodi.sourceforge.net/DTD/sodipodi-0.dtd"
   xmlns:inkscape="http://www.inkscape.org/namespaces/inkscape"
   enable-background="new 0 0 100 100"
   height="100px"
   version="1.1"
   viewBox="0 0 100 100"
   width="100px"
   xml:space="preserve"
   id="svg6"
   sodipodi:docname="black_queen.svg"
   inkscape:version="0.92.2 (5c3e80d, 2017-08-06)"><metadata
     id="metadata12"><rdf:RDF><cc:Work
         rdf:about=""><dc:format>image/svg+xml</dc:format><dc:type
           rdf:resource="http://purl.org/dc/dcmitype/StillImage" /></cc:Work></rdf:RDF></metadata><defs
     id="defs10" /><sodipodi:namedview
     pagecolor="#ffffff"
     bordercolor="#666666"
     borderopacity="1"
     objecttolerance="10"
     gridtolerance="10"
     guidetolerance="10"
     inkscape:pageopacity="0"
     inkscape:pageshadow="2"
     inkscape:window-width="3840"
     inkscape:window-height="2066"
     id="namedview8"
     showgrid="false"
     inkscape:zoom="13.350176"
     inkscape:cx="50"
     inkscape:cy="50"
     inkscape:window-x="-11"
     inkscape:window-y="-11"
     inkscape:window-maximized="1"
     inkscape:current-layer="svg6" /><g
     id="white_exp" /><g
     id="black_exp"><path
       sodipodi:type="inkscape:offset"
       inkscape:radius="0.72911215"
       inkscape:original="M 50 9 C 47.791 9 46 10.792 46 13 C 46 14.231 46.568359 15.318734 47.443359 16.052734 C 42.866359 16.233734 39.075609 16.889391 37.224609 17.775391 L 35.863281 14.275391 L 32.134766 15.724609 L 34.576172 22 L 65.423828 22 L 67.863281 15.724609 L 64.134766 14.275391 L 62.773438 17.775391 C 60.922438 16.889391 57.133641 16.233734 52.556641 16.052734 C 53.432641 15.318734 54 14.231 54 13 C 54 10.792 52.209 9 50 9 z M 34.964844 23 L 38.855469 33 L 61.146484 33 L 65.035156 23 L 34.964844 23 z M 39 34 C 37.9 34 37 34.9 37 36 C 37 37.1 37.9 38 39 38 L 61 38 C 62.1 38 63 37.1 63 36 C 63 34.9 62.1 34 61 34 L 39 34 z M 40.972656 39 C 40.695656 68.941 38.336625 72.513 37.390625 79 L 62.609375 79 C 61.663375 72.513 59.304344 68.941 59.027344 39 L 40.972656 39 z M 34 80 C 32.9 80 32 80.9 32 82 C 32 83.1 32.9 84 34 84 L 66 84 C 67.1 84 68 83.1 68 82 C 68 80.9 67.1 80 66 80 L 34 80 z M 31 85 C 28.8 85 27 86.8 27 89 C 27 91.2 28.8 93 31 93 L 69 93 C 71.2 93 73 91.2 73 89 C 73 86.8 71.2 85 69 85 L 31 85 z "
       xlink:href="#path3"
       id="path14"
       inkscape:href="#path3"
       d="m 50,8.2714844 c -2.603317,0 -4.728516,2.1262406 -4.728516,4.7285156 0,0.923257 0.337499,1.728882 0.798828,2.453125 -3.568199,0.222124 -6.496355,0.708856 -8.402343,1.453125 l -1.125,-2.894531 a 0.72918506,0.72918506 0 0 0 -0.94336,-0.416016 l -3.728515,1.449219 a 0.72918506,0.72918506 0 0 0 -0.416016,0.943359 l 2.441406,6.275391 a 0.72918506,0.72918506 0 0 0 0.414063,0.414062 0.72918506,0.72918506 0 0 0 -0.02539,0.585938 l 3.890625,10 a 0.72918506,0.72918506 0 0 0 0.08594,0.158203 C 37.126094,33.752222 36.271484,34.763471 36.271484,36 c 0,1.497698 1.230818,2.728516 2.728516,2.728516 h 1.296875 a 0.72918506,0.72918506 0 0 0 -0.05273,0.265625 c -0.276651,29.903243 -2.608758,33.279938 -3.574219,39.90039 a 0.72918506,0.72918506 0 0 0 0.04492,0.376953 H 34 c -1.497698,0 -2.728516,1.230818 -2.728516,2.728516 0,0.968973 0.542983,1.786797 1.3125,2.271484 H 31 c -2.597698,0 -4.728516,2.130818 -4.728516,4.728516 0,2.597698 2.130818,4.728516 4.728516,4.728516 h 38 c 2.597698,0 4.728516,-2.130818 4.728516,-4.728516 0,-2.597698 -2.130818,-4.728516 -4.728516,-4.728516 h -1.583984 c 0.769517,-0.484687 1.3125,-1.302511 1.3125,-2.271484 0,-1.497698 -1.230818,-2.728516 -2.728516,-2.728516 h -2.714844 a 0.72918506,0.72918506 0 0 0 0.04492,-0.376953 C 62.364617,72.274079 60.03251,68.897384 59.755859,38.994141 a 0.72918506,0.72918506 0 0 0 -0.05273,-0.265625 H 61 c 1.497698,0 2.728516,-1.230818 2.728516,-2.728516 0,-1.235866 -0.853584,-2.247178 -1.988282,-2.578125 a 0.72918506,0.72918506 0 0 0 0.08594,-0.158203 l 3.888672,-10 a 0.72918506,0.72918506 0 0 0 -0.02734,-0.583984 0.72918506,0.72918506 0 0 0 0.416016,-0.416016 l 2.439453,-6.275391 a 0.72918506,0.72918506 0 0 0 -0.416016,-0.943359 l -3.728515,-1.449219 a 0.72918506,0.72918506 0 0 0 -0.94336,0.416016 l -1.125,2.894531 C 60.42489,16.162203 57.498443,15.675339 53.931641,15.453125 54.392902,14.728787 54.728516,13.922889 54.728516,13 54.728516,10.397725 52.603317,8.2714844 50,8.2714844 Z"
       style="fill:#ffffff" /><path
       d="m 63,36 c 0,1.1 -0.9,2 -2,2 H 39 c -1.1,0 -2,-0.9 -2,-2 0,-1.1 0.9,-2 2,-2 h 22 c 1.1,0 2,0.9 2,2 z M 34,84 h 32 c 1.1,0 2,-0.9 2,-2 0,-1.1 -0.9,-2 -2,-2 H 34 c -1.1,0 -2,0.9 -2,2 0,1.1 0.9,2 2,2 z m 35,1 H 31 c -2.2,0 -4,1.8 -4,4 0,2.2 1.8,4 4,4 h 38 c 2.2,0 4,-1.8 4,-4 0,-2.2 -1.8,-4 -4,-4 z M 40.973,39 C 40.696,68.941 38.336,72.513 37.39,79 H 62.61 C 61.664,72.513 59.304,68.941 59.027,39 Z m -6.008,-16 3.89,10 h 22.291 l 3.89,-10 z m 30.459,-1 2.44,-6.275 -3.729,-1.45 -1.361,3.501 C 60.923,16.89 57.133,16.233 52.556,16.052 53.432,15.318 54,14.231 54,13 54,10.792 52.209,9 50,9 c -2.209,0 -4,1.792 -4,4 0,1.231 0.568,2.318 1.443,3.052 -4.577,0.181 -8.367,0.838 -10.218,1.724 l -1.361,-3.501 -3.729,1.45 2.441,6.275 z"
       id="path3"
       inkscape:connector-curvature="0" /></g></svg>