<?xml version="1.0" encoding="UTF-8" standalone="no"?>
<svg
   xmlns:dc="http://purl.org/dc/elements/1.1/"
   xmlns:cc="http://creativecommons.org/ns#"
   xmlns:rdf="http://www.w3.org/1999/02/22-rdf-syntax-ns#"
   xmlns:svg="http://www.w3.org/2000/svg"
   xmlns="http://www.w3.org/2000/svg"
   xmlns:xlink="http://www.w3.org/1999/xlink"
   xmlns:sodipodi="http://sodipodi.sourceforge.net/DTD/sodipodi-0.dtd"
   xmlns:inkscape="http://www.inkscape.org/namespaces/inkscape"
   enable-background="new 0 0 100 100"
   height="100px"
   version="1.1"
   viewBox="0 0 100 100"
   width="100px"
   xml:space="preserve"
   id="svg6"
   sodipodi:docname="black_rook.svg"
   inkscape:version="0.92.2 (5c3e80d, 2017-08-06)"><metadata
     id="metadata12"><rdf:RDF><cc:Work
         rdf:about=""><dc:format>image/svg+xml</dc:format><dc:type
           rdf:resource="http://purl.org/dc/dcmitype/StillImage" /></cc:Work></rdf:RDF></metadata><defs
     id="defs10" /><sodipodi:namedview
     pagecolor="#ffffff"
     bordercolor="#666666"
     borderopacity="1"
     objecttolerance="10"
     gridtolerance="10"
     guidetolerance="10"
     inkscape:pageopacity="0"
     inkscape:pageshadow="2"
     inkscape:window-width="3840"
     inkscape:window-height="2066"
     id="namedview8"
     showgrid="false"
     inkscape:zoom="13.350176"
     inkscape:cx="50"
     inkscape:cy="50"
     inkscape:window-x="-11"
     inkscape:window-y="-11"
     inkscape:window-maximized="1"
     inkscape:current-layer="svg6" /><g
     id="white_exp" /><g
     id="black_exp"><path
       sodipodi:type="inkscape:offset"
       inkscape:radius="0.77119809"
       inkscape:original="M 31 10 L 31 25 C 31 27.2 32.8 29 35 29 L 65 29 C 67.2 29 69 27.2 69 25 L 69 10 L 62 10 L 62 16 L 56 16 L 56 10 L 44 10 L 44 16 L 38 16 L 38 10 L 31 10 z M 35 30 C 33.9 30 33 30.9 33 32 C 33 33.1 33.9 34 35 34 L 65 34 C 66.1 34 67 33.1 67 32 C 67 30.9 66.1 30 65 30 L 35 30 z M 38 35 C 38 70.139 33.536281 72.751 31.738281 79 L 68.261719 79 C 66.463719 72.751 62 70.139 62 35 L 38 35 z M 30 80 C 28.9 80 28 80.9 28 82 C 28 83.1 28.9 84 30 84 L 70 84 C 71.1 84 72 83.1 72 82 C 72 80.9 71.1 80 70 80 L 30 80 z M 27 85 C 24.8 85 23 86.8 23 89 C 23 91.2 24.8 93 27 93 L 73 93 C 75.2 93 77 91.2 77 89 C 77 86.8 75.2 85 73 85 L 27 85 z "
       xlink:href="#path3"
       id="path14"
       inkscape:href="#path3"
       d="M 31,9.2285156 A 0.77127521,0.77127521 0 0 0 30.228516,10 v 15 c 0,2.198444 1.543344,3.984584 3.578125,4.529297 -0.922378,0.45194 -1.578125,1.381872 -1.578125,2.470703 0,1.520654 1.25083,2.771484 2.771484,2.771484 h 2.265625 A 0.77127521,0.77127521 0 0 0 37.228516,35 c 0,17.536845 -1.116659,26.919874 -2.4375,32.660156 -1.320841,5.740282 -2.854972,7.866919 -3.792969,11.126953 a 0.77127521,0.77127521 0 0 0 0.0039,0.441407 H 30 c -1.520654,0 -2.771484,1.25083 -2.771484,2.771484 0,0.934062 0.502305,1.725504 1.21875,2.228516 H 27 c -2.620654,0 -4.771484,2.15083 -4.771484,4.771484 0,2.620654 2.15083,4.771484 4.771484,4.771484 h 46 c 2.620654,0 4.771484,-2.15083 4.771484,-4.771484 0,-2.620654 -2.15083,-4.771484 -4.771484,-4.771484 h -1.447266 c 0.716445,-0.503012 1.21875,-1.294454 1.21875,-2.228516 0,-1.520654 -1.25083,-2.771484 -2.771484,-2.771484 h -1.003906 a 0.77127521,0.77127521 0 0 0 0.0059,-0.441407 C 68.063956,75.527075 66.529825,73.400438 65.208984,67.660156 63.888143,61.919874 62.771484,52.536845 62.771484,35 a 0.77127521,0.77127521 0 0 0 -0.03516,-0.228516 H 65 c 1.520654,0 2.771484,-1.25083 2.771484,-2.771484 0,-1.088831 -0.655747,-2.018763 -1.578125,-2.470703 C 68.22814,28.984584 69.771484,27.198444 69.771484,25 V 10 A 0.77127521,0.77127521 0 0 0 69,9.2285156 H 62 A 0.77127521,0.77127521 0 0 0 61.228516,10 v 5.228516 H 56.771484 V 10 A 0.77127521,0.77127521 0 0 0 56,9.2285156 H 44 A 0.77127521,0.77127521 0 0 0 43.228516,10 v 5.228516 H 38.771484 V 10 A 0.77127521,0.77127521 0 0 0 38,9.2285156 Z"
       style="fill:#ffffff" /><path
       d="M 31,25 V 10 h 7 v 6 h 6 v -6 h 12 v 6 h 6 v -6 h 7 v 15 c 0,2.2 -1.8,4 -4,4 H 35 c -2.2,0 -4,-1.8 -4,-4 z m 34,9 c 1.1,0 2,-0.9 2,-2 0,-1.1 -0.9,-2 -2,-2 H 35 c -1.1,0 -2,0.9 -2,2 0,1.1 0.9,2 2,2 z M 30,84 h 40 c 1.1,0 2,-0.9 2,-2 0,-1.1 -0.9,-2 -2,-2 H 30 c -1.1,0 -2,0.9 -2,2 0,1.1 0.9,2 2,2 z m 43,1 H 27 c -2.2,0 -4,1.8 -4,4 0,2.2 1.8,4 4,4 h 46 c 2.2,0 4,-1.8 4,-4 0,-2.2 -1.8,-4 -4,-4 z M 68.262,79 C 66.464,72.751 62,70.139 62,35 H 38 c 0,35.139 -4.464,37.751 -6.262,44 z"
       id="path3"
       inkscape:connector-curvature="0" /></g></svg>