<?xml version="1.0" encoding="UTF-8" standalone="no"?>
<svg
   xmlns:dc="http://purl.org/dc/elements/1.1/"
   xmlns:cc="http://creativecommons.org/ns#"
   xmlns:rdf="http://www.w3.org/1999/02/22-rdf-syntax-ns#"
   xmlns:svg="http://www.w3.org/2000/svg"
   xmlns="http://www.w3.org/2000/svg"
   xmlns:xlink="http://www.w3.org/1999/xlink"
   xmlns:sodipodi="http://sodipodi.sourceforge.net/DTD/sodipodi-0.dtd"
   xmlns:inkscape="http://www.inkscape.org/namespaces/inkscape"
   enable-background="new 0 0 100 100"
   height="100px"
   version="1.1"
   viewBox="0 0 100 100"
   width="100px"
   xml:space="preserve"
   id="svg6"
   sodipodi:docname="black_bishop.svg"
   inkscape:version="0.92.2 (5c3e80d, 2017-08-06)"><metadata
     id="metadata12"><rdf:RDF><cc:Work
         rdf:about=""><dc:format>image/svg+xml</dc:format><dc:type
           rdf:resource="http://purl.org/dc/dcmitype/StillImage" /></cc:Work></rdf:RDF></metadata><defs
     id="defs10" /><sodipodi:namedview
     pagecolor="#ffffff"
     bordercolor="#666666"
     borderopacity="1"
     objecttolerance="10"
     gridtolerance="10"
     guidetolerance="10"
     inkscape:pageopacity="0"
     inkscape:pageshadow="2"
     inkscape:window-width="3840"
     inkscape:window-height="2066"
     id="namedview8"
     showgrid="false"
     inkscape:zoom="13.350176"
     inkscape:cx="50"
     inkscape:cy="58.988646"
     inkscape:window-x="-11"
     inkscape:window-y="-11"
     inkscape:window-maximized="1"
     inkscape:current-layer="svg6" /><g
     id="white_exp" /><g
     id="black_exp"><path
       sodipodi:type="inkscape:offset"
       inkscape:radius="0.70899332"
       inkscape:original="M 49.496094 7 C 48.625094 9.015 46.720297 11.506266 44.654297 14.072266 L 48.894531 22.552734 L 47.105469 23.447266 L 43.271484 15.779297 C 40.100484 19.685297 37 23.558 37 26 C 37 31 41 37 41 37 L 59 37 C 59 37 63 31 63 26 C 63 21.589 52.887906 12.511 50.503906 7 L 49.496094 7 z M 39 38 C 37.9 38 37 38.9 37 40 C 37 41.1 37.9 42 39 42 L 61 42 C 62.1 42 63 41.1 63 40 C 63 38.9 62.1 38 61 38 L 39 38 z M 40.949219 43 C 40.591219 70.587 38.363875 73.262 37.421875 79 L 62.578125 79 C 61.636125 73.262 59.408781 70.587 59.050781 43 L 40.949219 43 z M 34 80 C 32.9 80 32 80.9 32 82 C 32 83.1 32.9 84 34 84 L 66 84 C 67.1 84 68 83.1 68 82 C 68 80.9 67.1 80 66 80 L 34 80 z M 31 85 C 28.8 85 27 86.8 27 89 C 27 91.2 28.8 93 31 93 L 69 93 C 71.2 93 73 91.2 73 89 C 73 86.8 71.2 85 69 85 L 31 85 z "
       xlink:href="#path3"
       id="path14"
       inkscape:href="#path3"
       d="M 49.496094,6.2910156 A 0.70906422,0.70906422 0 0 0 48.845703,6.71875 c -0.806074,1.864798 -2.685221,4.350998 -4.744141,6.908203 a 0.70906422,0.70906422 0 0 0 -0.08203,0.761719 l 3.923828,7.847656 -0.519531,0.259766 -3.517578,-7.033203 a 0.70906422,0.70906422 0 0 0 -1.185547,-0.13086 c -1.586499,1.954231 -3.165442,3.910617 -4.365234,5.714844 -1.199792,1.804227 -2.064453,3.432067 -2.064453,4.953125 0,2.689065 1.045554,5.504273 2.068359,7.677734 0.994776,2.113898 1.940054,3.531698 1.994141,3.613282 H 39 c -1.486724,0 -2.708984,1.22226 -2.708984,2.708984 0,1.486724 1.22226,2.708984 2.708984,2.708984 h 1.302734 a 0.70906422,0.70906422 0 0 0 -0.0625,0.28125 c -0.357512,27.549442 -2.552341,30.014991 -3.517578,35.894532 a 0.70906422,0.70906422 0 0 0 0.05273,0.40625 H 34 c -1.486724,0 -2.708984,1.22226 -2.708984,2.708984 0,0.985274 0.562582,1.816814 1.357422,2.291016 H 31 c -2.586724,0 -4.708984,2.12226 -4.708984,4.708984 0,2.586724 2.12226,4.708984 4.708984,4.708984 h 38 c 2.586724,0 4.708984,-2.12226 4.708984,-4.708984 0,-2.586724 -2.12226,-4.708984 -4.708984,-4.708984 H 67.351562 C 68.146402,83.816814 68.708984,82.985274 68.708984,82 c 0,-1.486724 -1.22226,-2.708984 -2.708984,-2.708984 h -2.775391 a 0.70906422,0.70906422 0 0 0 0.05273,-0.40625 c -0.965237,-5.879541 -3.160066,-8.34509 -3.517578,-35.894532 a 0.70906422,0.70906422 0 0 0 -0.06445,-0.28125 H 61 c 1.486724,0 2.708984,-1.22226 2.708984,-2.708984 0,-1.486724 -1.22226,-2.708984 -2.708984,-2.708984 h -1.353516 c 0.05409,-0.08158 0.999365,-1.499384 1.994141,-3.613282 C 62.66343,31.504273 63.708984,28.689065 63.708984,26 c 0,-1.373641 -0.712321,-2.830311 -1.726562,-4.433594 -1.014241,-1.603283 -2.367346,-3.336822 -3.785156,-5.097656 -2.83562,-3.521668 -5.939677,-7.1995615 -7.042969,-9.75 A 0.70906422,0.70906422 0 0 0 50.503906,6.2910156 Z"
       style="fill:#ffffff" /><path
       d="m 37,40 c 0,-1.1 0.9,-2 2,-2 h 22 c 1.1,0 2,0.9 2,2 0,1.1 -0.9,2 -2,2 H 39 c -1.1,0 -2,-0.9 -2,-2 z m -3,44 h 32 c 1.1,0 2,-0.9 2,-2 0,-1.1 -0.9,-2 -2,-2 H 34 c -1.1,0 -2,0.9 -2,2 0,1.1 0.9,2 2,2 z m 35,1 H 31 c -2.2,0 -4,1.8 -4,4 0,2.2 1.8,4 4,4 h 38 c 2.2,0 4,-1.8 4,-4 0,-2.2 -1.8,-4 -4,-4 z M 40.95,43 C 40.592,70.587 38.364,73.262 37.422,79 H 62.578 C 61.636,73.262 59.408,70.587 59.05,43 Z M 59,37 c 0,0 4,-6 4,-11 C 63,21.589 52.888,12.511 50.504,7 h -1.008 c -0.871,2.015 -2.776,4.506 -4.842,7.072 l 4.24,8.48 -1.789,0.895 -3.834,-7.668 C 40.1,19.685 37,23.558 37,26 c 0,5 4,11 4,11 z"
       id="path3"
       inkscape:connector-curvature="0" /></g></svg>