<?xml version="1.0" encoding="UTF-8" standalone="no"?>
<svg
   xmlns:dc="http://purl.org/dc/elements/1.1/"
   xmlns:cc="http://creativecommons.org/ns#"
   xmlns:rdf="http://www.w3.org/1999/02/22-rdf-syntax-ns#"
   xmlns:svg="http://www.w3.org/2000/svg"
   xmlns="http://www.w3.org/2000/svg"
   xmlns:xlink="http://www.w3.org/1999/xlink"
   xmlns:sodipodi="http://sodipodi.sourceforge.net/DTD/sodipodi-0.dtd"
   xmlns:inkscape="http://www.inkscape.org/namespaces/inkscape"
   enable-background="new 0 0 100 100"
   height="100px"
   version="1.1"
   viewBox="0 0 100 100"
   width="100px"
   xml:space="preserve"
   id="svg6"
   sodipodi:docname="black_king.svg"
   inkscape:version="0.92.2 (5c3e80d, 2017-08-06)"><metadata
     id="metadata12"><rdf:RDF><cc:Work
         rdf:about=""><dc:format>image/svg+xml</dc:format><dc:type
           rdf:resource="http://purl.org/dc/dcmitype/StillImage" /></cc:Work></rdf:RDF></metadata><defs
     id="defs10" /><sodipodi:namedview
     pagecolor="#ffffff"
     bordercolor="#666666"
     borderopacity="1"
     objecttolerance="10"
     gridtolerance="10"
     guidetolerance="10"
     inkscape:pageopacity="0"
     inkscape:pageshadow="2"
     inkscape:window-width="3840"
     inkscape:window-height="2066"
     id="namedview8"
     showgrid="false"
     inkscape:zoom="18.88"
     inkscape:cx="50"
     inkscape:cy="50"
     inkscape:window-x="-11"
     inkscape:window-y="-11"
     inkscape:window-maximized="1"
     inkscape:current-layer="black_exp" /><g
     id="white_exp" /><g
     id="black_exp"><path
       sodipodi:type="inkscape:offset"
       inkscape:radius="0.63559324"
       inkscape:original="M 48 5 L 48 7 L 46 7 L 46 11 L 48 11 L 48 15.769531 L 37 20 L 37.615234 22 L 62.384766 22 L 63 20 L 52 15.769531 L 52 11 L 54 11 L 54 7 L 52 7 L 52 5 L 48 5 z M 37.923828 23 L 41 33 L 59 33 L 62.076172 23 L 37.923828 23 z M 39 34 C 37.9 34 37 34.9 37 36 C 37 37.1 37.9 38 39 38 L 61 38 C 62.1 38 63 37.1 63 36 C 63 34.9 62.1 34 61 34 L 39 34 z M 40.972656 39 C 40.695656 68.941 38.336625 72.513 37.390625 79 L 62.609375 79 C 61.663375 72.513 59.304344 68.941 59.027344 39 L 40.972656 39 z M 34 80 C 32.9 80 32 80.9 32 82 C 32 83.1 32.9 84 34 84 L 66 84 C 67.1 84 68 83.1 68 82 C 68 80.9 67.1 80 66 80 L 34 80 z M 31 85 C 28.8 85 27 86.8 27 89 C 27 91.2 28.8 93 31 93 L 69 93 C 71.2 93 73 91.2 73 89 C 73 86.8 71.2 85 69 85 L 31 85 z "
       xlink:href="#path3"
       id="path14"
       inkscape:href="#path3"
       d="M 48,4.3652344 A 0.63565679,0.63565679 0 0 0 47.365234,5 V 6.3652344 H 46 A 0.63565679,0.63565679 0 0 0 45.365234,7 v 4 A 0.63565679,0.63565679 0 0 0 46,11.634766 h 1.365234 v 3.697265 l -10.59375,4.074219 a 0.63565679,0.63565679 0 0 0 -0.378906,0.78125 l 0.615234,2 a 0.63565679,0.63565679 0 0 0 0.417969,0.417969 0.63565679,0.63565679 0 0 0 -0.109375,0.582031 l 3.076172,10 a 0.63565679,0.63565679 0 0 0 0.08789,0.177734 H 39 c -1.446687,0 -2.634766,1.188079 -2.634766,2.634766 0,1.446687 1.188079,2.634766 2.634766,2.634766 h 1.453125 a 0.63565679,0.63565679 0 0 0 -0.115234,0.359375 c -0.276696,29.908086 -2.613207,33.310727 -3.576172,39.914062 a 0.63565679,0.63565679 0 0 0 0.109375,0.457031 H 34 c -1.446687,0 -2.634766,1.188079 -2.634766,2.634766 0,1.045345 0.63127,1.940362 1.521485,2.365234 H 31 c -2.546687,0 -4.634766,2.088079 -4.634766,4.634766 0,2.546687 2.088079,4.634766 4.634766,4.634766 h 38 c 2.546687,0 4.634766,-2.088079 4.634766,-4.634766 0,-2.546687 -2.088079,-4.634766 -4.634766,-4.634766 H 67.113281 C 68.003496,83.940362 68.634766,83.045345 68.634766,82 68.634766,80.553313 67.446687,79.365234 66,79.365234 h -2.871094 a 0.63565679,0.63565679 0 0 0 0.109375,-0.457031 C 62.275316,72.304868 59.938805,68.902227 59.662109,38.994141 A 0.63565679,0.63565679 0 0 0 59.546875,38.634766 H 61 c 1.446687,0 2.634766,-1.188079 2.634766,-2.634766 0,-1.446687 -1.188079,-2.634766 -2.634766,-2.634766 h -1.480469 a 0.63565679,0.63565679 0 0 0 0.08789,-0.177734 l 3.076172,-10 A 0.63565679,0.63565679 0 0 0 62.574219,22.607422 0.63565679,0.63565679 0 0 0 62.992188,22.1875 l 0.615234,-2 A 0.63565679,0.63565679 0 0 0 63.228516,19.40625 L 52.634766,15.332031 V 11.634766 H 54 A 0.63565679,0.63565679 0 0 0 54.634766,11 V 7 A 0.63565679,0.63565679 0 0 0 54,6.3652344 H 52.634766 V 5 A 0.63565679,0.63565679 0 0 0 52,4.3652344 Z"
       style="fill:#ffffff" /><path
       d="m 37,36 c 0,-1.1 0.9,-2 2,-2 h 22 c 1.1,0 2,0.9 2,2 0,1.1 -0.9,2 -2,2 H 39 c -1.1,0 -2,-0.9 -2,-2 z m -3,48 h 32 c 1.1,0 2,-0.9 2,-2 0,-1.1 -0.9,-2 -2,-2 H 34 c -1.1,0 -2,0.9 -2,2 0,1.1 0.9,2 2,2 z m 35,1 H 31 c -2.2,0 -4,1.8 -4,4 0,2.2 1.8,4 4,4 h 38 c 2.2,0 4,-1.8 4,-4 0,-2.2 -1.8,-4 -4,-4 z m -32,-65 0.615,2 h 24.77 L 63,20 52,15.769 V 11 h 2 V 7 H 52 V 5 h -4 v 2 h -2 v 4 h 2 v 4.769 z M 59,33 62.077,23 H 37.923 L 41,33 Z M 40.973,39 C 40.696,68.941 38.336,72.513 37.39,79 H 62.61 C 61.664,72.513 59.304,68.941 59.027,39 Z"
       id="path3"
       inkscape:connector-curvature="0" /></g></svg>