<?xml version="1.0" encoding="UTF-8" standalone="no"?>
<svg
   xmlns:dc="http://purl.org/dc/elements/1.1/"
   xmlns:cc="http://creativecommons.org/ns#"
   xmlns:rdf="http://www.w3.org/1999/02/22-rdf-syntax-ns#"
   xmlns:svg="http://www.w3.org/2000/svg"
   xmlns="http://www.w3.org/2000/svg"
   xmlns:xlink="http://www.w3.org/1999/xlink"
   xmlns:sodipodi="http://sodipodi.sourceforge.net/DTD/sodipodi-0.dtd"
   xmlns:inkscape="http://www.inkscape.org/namespaces/inkscape"
   enable-background="new 0 0 100 100"
   height="100px"
   version="1.1"
   viewBox="0 0 100 100"
   width="100px"
   xml:space="preserve"
   id="svg6"
   sodipodi:docname="black_pawn.svg"
   inkscape:version="0.92.2 (5c3e80d, 2017-08-06)"><metadata
     id="metadata12"><rdf:RDF><cc:Work
         rdf:about=""><dc:format>image/svg+xml</dc:format><dc:type
           rdf:resource="http://purl.org/dc/dcmitype/StillImage" /></cc:Work></rdf:RDF></metadata><defs
     id="defs10" /><sodipodi:namedview
     pagecolor="#ffffff"
     bordercolor="#666666"
     borderopacity="1"
     objecttolerance="10"
     gridtolerance="10"
     guidetolerance="10"
     inkscape:pageopacity="0"
     inkscape:pageshadow="2"
     inkscape:window-width="3840"
     inkscape:window-height="2066"
     id="namedview8"
     showgrid="false"
     inkscape:zoom="13.350176"
     inkscape:cx="50"
     inkscape:cy="50"
     inkscape:window-x="-11"
     inkscape:window-y="-11"
     inkscape:window-maximized="1"
     inkscape:current-layer="svg6" /><g
     id="white_exp" /><g
     id="black_exp"><path
       sodipodi:type="inkscape:offset"
       inkscape:radius="0.66955745"
       inkscape:original="M 50 9 C 42.82 9 37 14.82 37 22 C 37 29.18 42.82 35 50 35 C 57.18 35 63 29.18 63 22 C 63 14.82 57.18 9 50 9 z M 39 36 C 37.9 36 37 36.9 37 38 C 37 39.1 37.9 40 39 40 L 61 40 C 62.1 40 63 39.1 63 38 C 63 36.9 62.1 36 61 36 L 39 36 z M 42 41 C 42 74.478 37.947766 74.959 36.009766 79 L 63.990234 79 C 62.052234 74.959 58 74.478 58 41 L 42 41 z M 34 80 C 32.9 80 32 80.9 32 82 C 32 83.1 32.9 84 34 84 L 66 84 C 67.1 84 68 83.1 68 82 C 68 80.9 67.1 80 66 80 L 34 80 z M 31 85 C 28.8 85 27 86.8 27 89 C 27 91.2 28.8 93 31 93 L 69 93 C 71.2 93 73 91.2 73 89 C 73 86.8 71.2 85 69 85 L 31 85 z "
       xlink:href="#path3"
       id="path14"
       inkscape:href="#path3"
       d="m 50,8.3300781 c -7.541822,0 -13.669922,6.1280999 -13.669922,13.6699219 0,6.52736 4.598361,11.977132 10.722656,13.330078 H 39 c -1.465213,0 -2.669922,1.204709 -2.669922,2.669922 0,1.465213 1.204709,2.669922 2.669922,2.669922 h 2.417969 A 0.66962441,0.66962441 0 0 0 41.330078,41 c 0,16.711985 -1.017167,25.160107 -2.246094,29.869141 -1.228926,4.709033 -2.63453,5.666572 -3.677734,7.841797 a 0.66962441,0.66962441 0 0 0 0.02148,0.61914 H 34 c -1.465213,0 -2.669922,1.204709 -2.669922,2.669922 0,1.016478 0.599124,1.879708 1.44336,2.330078 H 31 c -2.565213,0 -4.669922,2.104709 -4.669922,4.669922 0,2.565213 2.104709,4.669922 4.669922,4.669922 h 38 c 2.565213,0 4.669922,-2.104709 4.669922,-4.669922 0,-2.565213 -2.104709,-4.669922 -4.669922,-4.669922 h -1.773438 c 0.844236,-0.45037 1.44336,-1.3136 1.44336,-2.330078 0,-1.465213 -1.204709,-2.669922 -2.669922,-2.669922 h -1.427734 a 0.66962441,0.66962441 0 0 0 0.02148,-0.61914 C 63.550546,76.535713 62.144942,75.578174 60.916016,70.869141 59.687089,66.160107 58.669922,57.711985 58.669922,41 a 0.66962441,0.66962441 0 0 0 -0.08789,-0.330078 H 61 c 1.465213,0 2.669922,-1.204709 2.669922,-2.669922 0,-1.465213 -1.204709,-2.669922 -2.669922,-2.669922 H 52.947266 C 59.071561,33.977132 63.669922,28.52736 63.669922,22 63.669922,14.458178 57.541822,8.3300781 50,8.3300781 Z"
       style="fill:#ffffff" /><path
       d="m 37,38 c 0,-1.1 0.9,-2 2,-2 h 22 c 1.1,0 2,0.9 2,2 0,1.1 -0.9,2 -2,2 H 39 c -1.1,0 -2,-0.9 -2,-2 z m -3,46 h 32 c 1.1,0 2,-0.9 2,-2 0,-1.1 -0.9,-2 -2,-2 H 34 c -1.1,0 -2,0.9 -2,2 0,1.1 0.9,2 2,2 z m 35,1 H 31 c -2.2,0 -4,1.8 -4,4 0,2.2 1.8,4 4,4 h 38 c 2.2,0 4,-1.8 4,-4 0,-2.2 -1.8,-4 -4,-4 z M 50,35 C 57.18,35 63,29.18 63,22 63,14.82 57.18,9 50,9 42.82,9 37,14.82 37,22 c 0,7.18 5.82,13 13,13 z m 8,6 H 42 c 0,33.478 -4.052,33.959 -5.99,38 H 63.99 C 62.052,74.959 58,74.478 58,41 Z"
       id="path3"
       inkscape:connector-curvature="0" /></g></svg>