<?xml version="1.0" encoding="UTF-8" standalone="no"?>
<svg
   xmlns:dc="http://purl.org/dc/elements/1.1/"
   xmlns:cc="http://creativecommons.org/ns#"
   xmlns:rdf="http://www.w3.org/1999/02/22-rdf-syntax-ns#"
   xmlns:svg="http://www.w3.org/2000/svg"
   xmlns="http://www.w3.org/2000/svg"
   xmlns:xlink="http://www.w3.org/1999/xlink"
   xmlns:sodipodi="http://sodipodi.sourceforge.net/DTD/sodipodi-0.dtd"
   xmlns:inkscape="http://www.inkscape.org/namespaces/inkscape"
   enable-background="new 0 0 100 100"
   height="100px"
   version="1.1"
   viewBox="0 0 100 100"
   width="100px"
   xml:space="preserve"
   id="svg14"
   sodipodi:docname="black_bishop.svg"
   inkscape:version="0.92.2 5c3e80d, 2017-08-06"><metadata
     id="metadata20"><rdf:RDF><cc:Work
         rdf:about=""><dc:format>image/svg+xml</dc:format><dc:type
           rdf:resource="http://purl.org/dc/dcmitype/StillImage" /></cc:Work></rdf:RDF></metadata><defs
     id="defs18" /><sodipodi:namedview
     pagecolor="#ffffff"
     bordercolor="#666666"
     borderopacity="1"
     objecttolerance="10"
     gridtolerance="10"
     guidetolerance="10"
     inkscape:pageopacity="0"
     inkscape:pageshadow="2"
     inkscape:window-width="1280"
     inkscape:window-height="755"
     id="namedview16"
     showgrid="false"
     inkscape:zoom="5.78"
     inkscape:cx="50"
     inkscape:cy="50"
     inkscape:window-x="1537"
     inkscape:window-y="121"
     inkscape:window-maximized="0"
     inkscape:current-layer="svg14" /><g
     id="white_exp" /><g
     id="black_exp"><path
       style="fill:#ff00ff"
       d="m 49.496094,7 c -0.871,2.015 -2.775797,4.506266 -4.841797,7.072266 l 4.240234,8.480468 -1.789062,0.894532 -3.833985,-7.667969 C 40.100484,19.685297 37,23.558 37,26 c 0,5 4,11 4,11 h 18 c 0,0 4,-6 4,-11 C 63,21.589 52.887906,12.511 50.503906,7 Z M 39,38 c -1.1,0 -2,0.9 -2,2 0,1.1 0.9,2 2,2 h 22 c 1.1,0 2,-0.9 2,-2 0,-1.1 -0.9,-2 -2,-2 z m 1.949219,5 c -0.358,27.587 -2.585344,30.262 -3.527344,36 h 25.15625 c -0.942,-5.738 -3.169344,-8.413 -3.527344,-36 z M 34,80 c -1.1,0 -2,0.9 -2,2 0,1.1 0.9,2 2,2 h 32 c 1.1,0 2,-0.9 2,-2 0,-1.1 -0.9,-2 -2,-2 z m -3,5 c -2.2,0 -4,1.8 -4,4 0,2.2 1.8,4 4,4 h 38 c 2.2,0 4,-1.8 4,-4 0,-2.2 -1.8,-4 -4,-4 z"
       id="path22" /><path
       sodipodi:type="inkscape:offset"
       inkscape:radius="1.3121809"
       inkscape:original="M 49.496094 7 C 48.625094 9.015 46.720297 11.506266 44.654297 14.072266 L 48.894531 22.552734 L 47.105469 23.447266 L 43.271484 15.779297 C 40.100484 19.685297 37 23.558 37 26 C 37 31 41 37 41 37 L 59 37 C 59 37 63 31 63 26 C 63 21.589 52.887906 12.511 50.503906 7 L 49.496094 7 z M 39 38 C 37.9 38 37 38.9 37 40 C 37 41.1 37.9 42 39 42 L 61 42 C 62.1 42 63 41.1 63 40 C 63 38.9 62.1 38 61 38 L 39 38 z M 40.949219 43 C 40.591219 70.587 38.363875 73.262 37.421875 79 L 62.578125 79 C 61.636125 73.262 59.408781 70.587 59.050781 43 L 40.949219 43 z M 34 80 C 32.9 80 32 80.9 32 82 C 32 83.1 32.9 84 34 84 L 66 84 C 67.1 84 68 83.1 68 82 C 68 80.9 67.1 80 66 80 L 34 80 z M 31 85 C 28.8 85 27 86.8 27 89 C 27 91.2 28.8 93 31 93 L 69 93 C 71.2 93 73 91.2 73 89 C 73 86.8 71.2 85 69 85 L 31 85 z "
       xlink:href="#path11"
       id="path25"
       inkscape:href="#path11"
       d="M 49.496094,5.6875 A 1.3123121,1.3123121 0 0 0 48.291016,6.4785156 C 47.540179,8.2155268 45.685707,10.700277 43.632812,13.25 a 1.3123121,1.3123121 0 0 0 -0.226562,1.224609 1.3123121,1.3123121 0 0 0 -1.154297,0.478516 c -1.58735,1.955279 -3.174572,3.919338 -4.398437,5.759766 C 36.62965,22.553319 35.6875,24.223663 35.6875,26 c 0,2.849915 1.082792,5.718903 2.125,7.933594 0.756389,1.607327 1.160304,2.176715 1.521484,2.753906 H 39 c -1.815735,0 -3.3125,1.496765 -3.3125,3.3125 0,1.815735 1.496765,3.3125 3.3125,3.3125 h 0.625 c -0.3715,26.988217 -2.491689,29.472121 -3.478516,35.375 H 34 c -1.815735,0 -3.3125,1.496765 -3.3125,3.3125 0,0.627974 0.225864,1.184605 0.535156,1.6875 H 31 c -2.915735,0 -5.3125,2.396765 -5.3125,5.3125 0,2.915735 2.396765,5.3125 5.3125,5.3125 h 38 c 2.915735,0 5.3125,-2.396765 5.3125,-5.3125 0,-2.915735 -2.396765,-5.3125 -5.3125,-5.3125 H 68.777344 C 69.086636,83.184605 69.3125,82.627974 69.3125,82 69.3125,80.184265 67.815735,78.6875 66,78.6875 H 63.853516 C 62.866689,72.784621 60.7465,70.300717 60.375,43.3125 H 61 c 1.815735,0 3.3125,-1.496765 3.3125,-3.3125 0,-1.815735 -1.496765,-3.3125 -3.3125,-3.3125 h -0.333984 c 0.36118,-0.577191 0.765095,-1.146579 1.521484,-2.753906 1.042208,-2.214691 2.125,-5.083679 2.125,-7.933594 0,-1.604106 -0.781415,-3.113599 -1.820312,-4.755859 C 61.45329,19.601881 60.089861,17.855748 58.667969,16.089844 55.824184,12.558036 52.736808,8.8544947 51.708984,6.4785156 A 1.3123121,1.3123121 0 0 0 50.503906,5.6875 Z"
       style="fill:#ffffff" /><path
       d="m 37,40 c 0,-1.1 0.9,-2 2,-2 h 22 c 1.1,0 2,0.9 2,2 0,1.1 -0.9,2 -2,2 H 39 c -1.1,0 -2,-0.9 -2,-2 z m -3,44 h 32 c 1.1,0 2,-0.9 2,-2 0,-1.1 -0.9,-2 -2,-2 H 34 c -1.1,0 -2,0.9 -2,2 0,1.1 0.9,2 2,2 z m 35,1 H 31 c -2.2,0 -4,1.8 -4,4 0,2.2 1.8,4 4,4 h 38 c 2.2,0 4,-1.8 4,-4 0,-2.2 -1.8,-4 -4,-4 z M 40.95,43 C 40.592,70.587 38.364,73.262 37.422,79 H 62.578 C 61.636,73.262 59.408,70.587 59.05,43 Z M 59,37 c 0,0 4,-6 4,-11 C 63,21.589 52.888,12.511 50.504,7 h -1.008 c -0.871,2.015 -2.776,4.506 -4.842,7.072 l 4.24,8.48 -1.789,0.895 -3.834,-7.668 C 40.1,19.685 37,23.558 37,26 c 0,5 4,11 4,11 z"
       id="path11"
       inkscape:connector-curvature="0" /></g></svg>