<?xml version="1.0" encoding="UTF-8" standalone="no"?>
<svg
   xmlns:dc="http://purl.org/dc/elements/1.1/"
   xmlns:cc="http://creativecommons.org/ns#"
   xmlns:rdf="http://www.w3.org/1999/02/22-rdf-syntax-ns#"
   xmlns:svg="http://www.w3.org/2000/svg"
   xmlns="http://www.w3.org/2000/svg"
   xmlns:sodipodi="http://sodipodi.sourceforge.net/DTD/sodipodi-0.dtd"
   xmlns:inkscape="http://www.inkscape.org/namespaces/inkscape"
   enable-background="new 0 0 100 100"
   height="100px"
   version="1.1"
   viewBox="0 0 100 100"
   width="100px"
   xml:space="preserve"
   id="svg3715"
   sodipodi:docname="white_pawn.svg"
   inkscape:version="0.92.2 (5c3e80d, 2017-08-06)"><metadata
     id="metadata3721"><rdf:RDF><cc:Work
         rdf:about=""><dc:format>image/svg+xml</dc:format><dc:type
           rdf:resource="http://purl.org/dc/dcmitype/StillImage" /></cc:Work></rdf:RDF></metadata><defs
     id="defs3719" /><sodipodi:namedview
     pagecolor="#ffffff"
     bordercolor="#666666"
     borderopacity="1"
     objecttolerance="10"
     gridtolerance="10"
     guidetolerance="10"
     inkscape:pageopacity="0"
     inkscape:pageshadow="2"
     inkscape:window-width="3840"
     inkscape:window-height="2066"
     id="namedview3717"
     showgrid="false"
     inkscape:zoom="18.43"
     inkscape:cx="40.938687"
     inkscape:cy="50"
     inkscape:window-x="-11"
     inkscape:window-y="-11"
     inkscape:window-maximized="1"
     inkscape:current-layer="svg3715" /><g
     id="white_exp"><path
       d="M69.878,83.072C69.954,82.726,70,82.369,70,82c0-2.695-2.148-4.885-4.82-4.982c-0.16-0.265-0.323-0.524-0.489-0.783   c-1.822-2.842-4.552-7.112-4.685-33.235C62.76,42.996,65,40.755,65,38c0-2.707-2.166-4.905-4.853-4.985   C63.122,30.272,65,26.356,65,22c0-8.271-6.729-15-15-15s-15,6.729-15,15c0,4.356,1.878,8.272,4.853,11.015   C37.166,33.095,35,35.293,35,38c0,2.755,2.24,4.996,4.994,5c-0.133,26.124-2.862,30.394-4.685,33.235   c-0.166,0.259-0.329,0.519-0.489,0.783C32.148,77.115,30,79.305,30,82c0,0.369,0.046,0.726,0.122,1.072   C27.229,83.499,25,85.99,25,89c0,3.309,2.691,6,6,6h38c3.309,0,6-2.691,6-6C75,85.99,72.771,83.499,69.878,83.072z M34,82   c0-0.542,0.458-1,1-1h30c0.542,0,1,0.458,1,1s-0.458,1-1,1H35C34.458,83,34,82.542,34,82z M39.535,77   c2.042-3.56,4.339-10.124,4.46-34h12.01c0.121,23.876,2.418,30.44,4.46,34H39.535z M39,22c0-6.065,4.935-11,11-11s11,4.935,11,11   s-4.935,11-11,11S39,28.065,39,22z M39,38c0-0.542,0.458-1,1-1h20c0.542,0,1,0.458,1,1s-0.458,1-1,1H40C39.458,39,39,38.542,39,38z    M69,91H31c-1.103,0-2-0.897-2-2s0.897-2,2-2h38c1.103,0,2,0.897,2,2S70.103,91,69,91z"
       id="path3711" /></g><g
     id="black_exp" /><path
     style="fill:#e9ddaf;stroke-width:0.05425936"
     d="m 49.196961,32.939226 c -2.645023,-0.20074 -5.066067,-1.315171 -6.946681,-3.197628 -1.7568,-1.75852 -2.84237,-3.990867 -3.148248,-6.474001 -0.08387,-0.680905 -0.03897,-2.505132 0.07685,-3.121697 0.198308,-1.055713 0.555604,-2.138564 0.99497,-3.015443 2.768343,-5.525012 9.481354,-7.6987641 14.924267,-4.832653 1.038347,0.54677 1.848279,1.148322 2.698949,2.004564 2.125717,2.139641 3.273555,5.079822 3.156377,8.085044 -0.08987,2.304887 -0.816141,4.36036 -2.191379,6.201992 -0.394418,0.52818 -1.330022,1.496308 -1.860277,1.924946 -2.17145,1.755314 -4.960667,2.633141 -7.70483,2.424876 z"
     id="path3723"
     inkscape:connector-curvature="0" /><path
     style="fill:#e9ddaf;stroke-width:0.05425936"
     d="m 39.619176,38.888032 c -0.200468,-0.08735 -0.500564,-0.419867 -0.547422,-0.606565 -0.108103,-0.430719 0.107682,-0.943669 0.483411,-1.149131 0.163195,-0.08924 0.778312,-0.09582 10.320038,-0.11032 7.479092,-0.01137 10.205986,8.65e-4 10.372776,0.04653 0.391948,0.107321 0.723264,0.528038 0.723264,0.918427 0,0.194407 -0.127296,0.521938 -0.259802,0.668465 -0.05109,0.05649 -0.183474,0.148948 -0.294195,0.205458 -0.195476,0.09977 -0.497474,0.102684 -10.417797,0.100621 -8.320847,-0.0017 -10.246877,-0.01537 -10.380273,-0.07349 z"
     id="path3725"
     inkscape:connector-curvature="0" /><path
     style="fill:#e9ddaf;stroke-width:0.05425936"
     d="m 39.602098,76.958174 c 0.0099,-0.02271 0.192466,-0.382852 0.405598,-0.800325 1.972664,-3.863982 3.100426,-10.063183 3.652122,-20.075375 0.190948,-3.465335 0.327085,-7.883962 0.327822,-10.640213 2.33e-4,-0.868394 0.01621,-1.765709 0.03551,-1.994031 l 0.03509,-0.415132 h 5.952581 5.952582 l 0.03685,2.509496 c 0.13212,8.996962 0.527036,15.44076 1.259471,20.550658 0.644999,4.499898 1.486989,7.600621 2.736847,10.07875 l 0.417332,0.827455 h -10.41495 c -5.728222,0 -10.406811,-0.01858 -10.396863,-0.04128 z"
     id="path3727"
     inkscape:connector-curvature="0" /><path
     style="fill:#e9ddaf;stroke-width:0.05425936"
     d="m 34.627315,82.892373 c -0.228447,-0.09954 -0.498841,-0.424526 -0.568523,-0.683305 -0.117607,-0.436758 0.15984,-0.939682 0.612754,-1.110731 0.206682,-0.07806 1.653449,-0.08475 15.424661,-0.07135 l 15.196586,0.01479 0.225565,0.149273 c 0.628724,0.416076 0.574887,1.325211 -0.09883,1.668916 -0.209944,0.107106 -0.340182,0.108 -15.420079,0.105894 -12.446501,-0.0017 -15.238091,-0.01508 -15.372134,-0.07349 z"
     id="path3729"
     inkscape:connector-curvature="0" /><path
     style="fill:#f4eed7;stroke-width:0.05425936"
     d="m 30.675555,90.941457 c -0.618715,-0.103817 -1.20888,-0.57173 -1.487311,-1.179218 -0.188341,-0.410928 -0.198184,-1.03081 -0.02345,-1.476835 0.169833,-0.433511 0.538039,-0.827245 0.974593,-1.042159 l 0.362944,-0.178676 h 19.50738 19.50738 l 0.311417,0.152923 c 0.397378,0.195134 0.780546,0.578303 0.959266,0.959266 0.121333,0.258635 0.14006,0.371104 0.14006,0.841148 0,0.51502 -0.0095,0.560022 -0.185954,0.885563 -0.316419,0.583596 -0.809152,0.929788 -1.477787,1.038287 -0.417142,0.06769 -38.185096,0.0674 -38.588538,-2.99e-4 z"
     id="path3731"
     inkscape:connector-curvature="0" /><path
     style="fill:#f4eed7;stroke-width:0.05425936"
     d="m 37.232773,82.91732 c -2.916931,-0.03441 -2.727914,-0.0066 -3.022443,-0.445114 -0.258369,-0.384703 -0.183602,-0.841334 0.191714,-1.170866 0.108256,-0.09505 0.276706,-0.185054 0.374333,-0.200008 0.474145,-0.07263 6.349579,-0.09059 17.907755,-0.05476 l 12.697988,0.03937 0.230928,0.222086 c 0.397028,0.381829 0.433329,0.881109 0.09343,1.285055 -0.315028,0.37439 0.819196,0.344323 -13.199696,0.349911 -6.968258,0.0028 -13.841562,-0.0088 -15.274009,-0.02567 z"
     id="path3733"
     inkscape:connector-curvature="0" /><path
     style="fill:#f4eed7;stroke-width:0.05425936"
     d="m 41.125882,76.9588 c -0.813212,-0.0084 -1.478568,-0.02553 -1.478568,-0.03798 0,-0.01245 0.170428,-0.370184 0.378729,-0.794968 0.613129,-1.250339 1.016987,-2.314689 1.511166,-3.982607 0.183641,-0.619811 0.572591,-2.263116 0.680654,-2.875746 0.01579,-0.08953 0.102212,-0.560732 0.192044,-1.04712 0.241724,-1.308782 0.481218,-3.018719 0.685495,-4.89428 0.01463,-0.134292 0.03801,-0.341834 0.05196,-0.461205 0.01395,-0.11937 0.03757,-0.350105 0.05248,-0.512742 0.01491,-0.162637 0.05054,-0.541096 0.07919,-0.84102 0.02864,-0.299924 0.06596,-0.740649 0.08293,-0.97939 0.01697,-0.238741 0.04174,-0.519534 0.05504,-0.623983 0.0133,-0.104449 0.03865,-0.434075 0.05634,-0.732501 0.01768,-0.298427 0.04186,-0.664677 0.05372,-0.813891 0.01186,-0.149213 0.03567,-0.503255 0.05291,-0.78676 0.01724,-0.283506 0.04225,-0.686381 0.05558,-0.89528 0.03933,-0.616309 0.08724,-1.572918 0.161687,-3.228432 0.01409,-0.313348 0.03854,-0.984807 0.05434,-1.492132 0.0158,-0.507325 0.04206,-1.129951 0.05835,-1.383614 0.01629,-0.253662 0.05027,-2.0283 0.07551,-3.94364 0.02523,-1.915339 0.06201,-3.50853 0.08172,-3.540423 0.02507,-0.04057 1.809284,-0.05799 5.939806,-0.05799 h 5.903969 l 0.03363,0.203473 c 0.0185,0.11191 0.03414,0.728432 0.03477,1.370049 0.0014,1.404951 0.08562,5.22782 0.163835,7.433532 0.341047,9.617876 1.152206,16.311347 2.521706,20.808464 0.109056,0.358112 0.259148,0.809821 0.333539,1.003799 0.07439,0.193977 0.167947,0.438144 0.207901,0.542593 0.214976,0.561993 0.495225,1.194883 0.812456,1.834784 0.195597,0.394548 0.355632,0.729128 0.355632,0.743512 0,0.02639 -16.506529,0.01395 -19.248508,-0.0145 z"
     id="path3735"
     inkscape:connector-curvature="0" /><path
     style="fill:#f4eed7;stroke-width:0.05425936"
     d="m 48.735757,32.879428 c -1.959975,-0.246161 -3.79245,-0.98839 -5.356502,-2.169607 -0.619815,-0.468102 -1.68514,-1.544727 -2.141261,-2.163972 -1.240553,-1.684218 -1.985719,-3.628423 -2.133685,-5.566977 -0.06991,-0.91592 0.01159,-2.482834 0.166476,-3.20044 0.820921,-3.803547 3.55841,-6.894121 7.204833,-8.134122 1.289025,-0.438345 1.9865,-0.543349 3.589493,-0.540394 1.238124,0.0023 1.377763,0.0127 2.034726,0.151766 3.482202,0.737126 6.262257,2.893117 7.756688,6.015473 0.75137,1.569858 1.065733,2.956271 1.06446,4.694518 -7e-4,0.954625 -0.05674,1.535881 -0.228285,2.367702 -0.298079,1.445397 -1.035207,3.053685 -1.945377,4.244486 -0.42808,0.560071 -1.546662,1.689811 -2.06257,2.083147 -1.592699,1.214296 -3.533904,1.997927 -5.507325,2.223211 -0.574937,0.06563 -1.901656,0.06303 -2.441671,-0.0048 z"
     id="path3737"
     inkscape:connector-curvature="0" /><path
     style="fill:#ffffff;stroke-width:0.05425936"
     d="m 41.410743,38.913623 c -1.679696,-0.02942 -1.799444,-0.03809 -1.934074,-0.139885 -0.5021,-0.379659 -0.543809,-0.982603 -0.100828,-1.457543 l 0.20939,-0.224497 6.55573,-0.04344 c 3.605651,-0.02389 8.252691,-0.02921 10.326755,-0.01182 4.244006,0.03558 3.996732,0.0096 4.310489,0.453691 0.316077,0.447425 0.156531,1.076956 -0.334176,1.318583 l -0.259547,0.127803 -8.49159,0.0042 c -4.670374,0.0023 -9.297341,-0.0099 -10.282149,-0.02713 z"
     id="path3739"
     inkscape:connector-curvature="0" /><path
     style="fill:#ffffff;stroke-width:0.05425936"
     d="M 30.623983,90.919939 C 30.19446,90.8206 29.457406,90.360611 29.457406,90.19189 c 0,-0.02661 -0.03438,-0.07691 -0.07639,-0.111779 -0.325685,-0.270294 -0.428001,-1.218526 -0.196101,-1.817406 0.116757,-0.301525 0.387622,-0.631037 0.755591,-0.919188 0.340557,-0.266686 -0.868035,-0.251495 20.046769,-0.251967 10.756562,-2.43e-4 19.602458,0.01588 19.657546,0.03582 0.114411,0.04142 0.669591,0.395087 0.751273,0.478587 0.153907,0.157331 0.379524,0.502383 0.441068,0.674555 0.0383,0.107141 0.07065,0.438969 0.0719,0.737396 0.0021,0.498603 -0.01074,0.567266 -0.158152,0.846914 -0.202256,0.383693 -0.736411,0.916515 -0.918808,0.916515 -0.02911,0 -0.121659,0.02787 -0.205669,0.06193 -0.08401,0.03406 -0.201579,0.07339 -0.261265,0.08738 -0.05969,0.014 -8.739826,0.03143 -19.289202,0.03874 -14.36521,0.01 -19.248795,-0.0025 -19.45198,-0.04945 z"
     id="path4546"
     inkscape:connector-curvature="0" /><path
     style="fill:#ffffff;stroke-width:0.05425936"
     d="m 35.470715,82.909501 c -0.04108,-0.02299 -0.279272,-0.04878 -0.529303,-0.0573 -0.405767,-0.01383 -0.468659,-0.0303 -0.585444,-0.153327 -0.163021,-0.17173 -0.293306,-0.41138 -0.248179,-0.456507 0.01871,-0.01871 0.0055,-0.03401 -0.02929,-0.03401 -0.07608,0 -0.08619,-0.359262 -0.01141,-0.405481 0.02854,-0.01764 0.03912,-0.06535 0.02351,-0.106036 -0.01566,-0.0408 0.06635,-0.167755 0.182874,-0.283124 0.219893,-0.217706 0.24677,-0.236287 0.341786,-0.236287 0.0316,0 0.04457,-0.02086 0.02882,-0.04635 -0.01575,-0.02549 0.172034,-0.06197 0.417308,-0.08106 0.717851,-0.05588 29.995649,-0.04178 30.192038,0.01454 0.168708,0.04838 0.62254,0.464085 0.567139,0.519486 -0.0151,0.0151 2.71e-4,0.02746 0.03414,0.02746 0.03388,0 0.04754,0.03663 0.03037,0.08139 -0.01718,0.04476 -0.0042,0.08139 0.02883,0.08139 0.09442,0 0.07362,0.467024 -0.0252,0.565848 -0.0469,0.04689 -0.06521,0.08601 -0.04069,0.08691 0.02451,9.08e-4 0.0013,0.02683 -0.05152,0.05759 -0.05285,0.03077 -0.08314,0.07691 -0.06731,0.102524 0.04525,0.07322 -0.240057,0.270239 -0.337296,0.232925 -0.0491,-0.01884 -0.07279,-0.01061 -0.05454,0.01893 0.0199,0.03219 -0.106875,0.04487 -0.33022,0.03302 -0.212444,-0.01127 -0.334798,9.8e-5 -0.295566,0.02746 0.08321,0.05802 -29.137165,0.06802 -29.240832,0.01001 z"
     id="path4548"
     inkscape:connector-curvature="0" /><path
     style="fill:#ffffff;stroke-width:0.05425936"
     d="m 39.643556,76.966761 c -0.01874,-0.01874 0.144853,-0.3914 0.363531,-0.82814 2.63083,-5.25424 3.765979,-14.224141 4.012917,-31.709913 0.01002,-0.709625 0.03582,-1.307835 0.05732,-1.329354 0.02151,-0.02152 2.710709,-0.04678 5.976005,-0.05613 l 5.9369,-0.01701 6.51e-4,1.183585 c 0.0024,4.40057 0.260258,11.304581 0.572085,15.318149 0.624251,8.034828 1.666811,13.096857 3.417483,16.593184 0.218868,0.43711 0.385243,0.807448 0.369721,0.822972 -0.04077,0.04078 -20.665929,0.06335 -20.706616,0.02266 z"
     id="path4550"
     inkscape:connector-curvature="0" /><path
     style="fill:#ffffff;stroke-width:0.05425936"
     d="m 49.587052,32.978199 c -0.01524,-0.0162 -0.247197,-0.04152 -0.515464,-0.05626 -0.557207,-0.03063 -1.487568,-0.181519 -1.577036,-0.255771 -0.03308,-0.02746 -0.07563,-0.03445 -0.09454,-0.01553 -0.01892,0.01892 -0.06775,0.0067 -0.108519,-0.02713 -0.04077,-0.03384 -0.08681,-0.04884 -0.102305,-0.03334 -0.0155,0.0155 -0.09871,-8.36e-4 -0.184915,-0.0363 -0.08621,-0.03546 -0.18726,-0.05949 -0.224563,-0.0534 -0.0373,0.0061 -0.06782,-0.01364 -0.06782,-0.04386 0,-0.03021 -0.03663,-0.04088 -0.08139,-0.0237 -0.04476,0.01718 -0.08139,0.005 -0.08139,-0.02713 0,-0.0321 -0.03663,-0.04431 -0.08139,-0.02713 -0.04476,0.01718 -0.08139,0.005 -0.08139,-0.02713 0,-0.0321 -0.03663,-0.04431 -0.08139,-0.02713 -0.04476,0.01718 -0.08139,0.0094 -0.08139,-0.01729 0,-0.02669 -0.05274,-0.05249 -0.117202,-0.05735 -0.06446,-0.0049 -0.131607,-0.02836 -0.149213,-0.05224 -0.01761,-0.02388 -0.08085,-0.05175 -0.140531,-0.06195 -0.05969,-0.0102 -0.116708,-0.04087 -0.126717,-0.06816 -0.01001,-0.0273 -0.04053,-0.03583 -0.06782,-0.01896 -0.02729,0.01687 -0.04962,0.0034 -0.04962,-0.02999 0,-0.03336 -0.02442,-0.04557 -0.05426,-0.02713 -0.02984,0.01844 -0.05426,0.0077 -0.05426,-0.02393 0,-0.0316 -0.01959,-0.05136 -0.04353,-0.0439 -0.06763,0.02108 -0.607586,-0.243165 -0.607586,-0.297338 0,-0.0265 -0.02442,-0.0331 -0.05426,-0.01465 -0.02984,0.01844 -0.05426,0.0062 -0.05426,-0.02713 0,-0.03336 -0.02442,-0.04557 -0.05426,-0.02713 -0.02984,0.01844 -0.05426,0.0062 -0.05426,-0.02713 0,-0.03336 -0.02459,-0.04547 -0.05464,-0.02689 -0.03005,0.01857 -0.06773,-3.25e-4 -0.08372,-0.04201 -0.01599,-0.04168 -0.06143,-0.07579 -0.100969,-0.07579 -0.126959,0 -1.134749,-0.736404 -1.42914,-1.04429 -0.156673,-0.163855 -0.284861,-0.275334 -0.284861,-0.24773 0,0.0276 -0.169723,-0.118234 -0.377162,-0.324083 -0.207438,-0.20585 -0.365613,-0.392957 -0.351498,-0.415795 0.01411,-0.02284 -0.06106,-0.110136 -0.167059,-0.193997 -0.182176,-0.14413 -0.717109,-0.776456 -0.656864,-0.776456 0.01548,0 -0.03128,-0.06411 -0.103902,-0.142475 -0.07262,-0.07836 -0.12043,-0.161261 -0.106239,-0.184222 0.01419,-0.02296 -0.01223,-0.05634 -0.05872,-0.07418 -0.04648,-0.01784 -0.0709,-0.05446 -0.05426,-0.08139 0.01664,-0.02693 -0.0078,-0.06355 -0.05426,-0.08139 -0.04648,-0.01784 -0.06932,-0.05702 -0.05075,-0.08708 0.01857,-0.03005 0.0065,-0.05464 -0.02689,-0.05464 -0.03337,0 -0.04716,-0.02186 -0.03064,-0.04857 0.01651,-0.02671 -0.008,-0.06317 -0.0545,-0.081 -0.04648,-0.01784 -0.06932,-0.05702 -0.05075,-0.08708 0.01857,-0.03005 0.0065,-0.05464 -0.02689,-0.05464 -0.03337,0 -0.04557,-0.02442 -0.02713,-0.05426 0.01844,-0.02984 0.0132,-0.05426 -0.01165,-0.05426 -0.05367,0 -0.413385,-0.693082 -0.413385,-0.796494 0,-0.03941 -0.02179,-0.07166 -0.04842,-0.07166 -0.02663,0 -0.03333,-0.02442 -0.01488,-0.05426 0.01844,-0.02984 0.01158,-0.05426 -0.01524,-0.05426 -0.04968,0 -0.190335,-0.367408 -0.174239,-0.455138 0.0049,-0.02651 -0.01671,-0.06399 -0.04794,-0.08329 -0.08039,-0.04968 -0.421108,-1.261603 -0.514975,-1.831745 -0.119775,-0.727509 -0.138565,-1.037225 -0.13436,-2.214744 0.0036,-1.004856 3.67e-4,-0.949539 0.05529,-0.949539 0.02515,0 0.04316,-0.103771 0.04002,-0.230603 -0.01477,-0.597351 0.347517,-2.001067 0.724707,-2.807921 0.09068,-0.193978 0.161106,-0.370999 0.156498,-0.393381 -0.0046,-0.02238 0.01748,-0.04069 0.04909,-0.04069 0.0316,0 0.04237,-0.02442 0.02393,-0.05426 -0.01844,-0.02984 -0.0062,-0.05426 0.02713,-0.05426 0.03336,0 0.04679,-0.02245 0.02983,-0.04988 -0.01696,-0.02744 0.0017,-0.08237 0.04137,-0.122084 0.072,-0.072 0.09158,-0.114244 0.09158,-0.197615 0,-0.02422 0.04978,-0.09747 0.110633,-0.162778 0.06085,-0.06531 0.09609,-0.11875 0.07832,-0.11875 -0.01777,0 0.01096,-0.07325 0.06385,-0.162778 0.05288,-0.08953 0.115307,-0.162779 0.138716,-0.162779 0.02341,0 0.04256,-0.03663 0.04256,-0.08139 0,-0.04476 0.02586,-0.08139 0.05746,-0.08139 0.0316,0 0.04427,-0.02135 0.02815,-0.04743 -0.01612,-0.02609 0.03127,-0.112805 0.105317,-0.192703 0.07405,-0.0799 0.134631,-0.169195 0.134631,-0.198437 0,-0.02924 0.03648,-0.06717 0.08108,-0.08428 0.04459,-0.01711 0.06806,-0.05217 0.05215,-0.07791 -0.01591,-0.02574 0.02086,-0.07789 0.0817,-0.115886 0.06084,-0.038 0.110625,-0.09927 0.110625,-0.136172 0,-0.0369 0.06083,-0.106945 0.135182,-0.155661 0.07435,-0.04872 0.123004,-0.10828 0.10812,-0.132363 -0.01488,-0.02408 0.106639,-0.158013 0.270053,-0.297622 0.163413,-0.139608 0.29178,-0.280415 0.28526,-0.312905 -0.0065,-0.03249 0.05224,-0.0911 0.13059,-0.130235 0.07835,-0.03914 0.232584,-0.181166 0.342754,-0.315613 0.11017,-0.134448 0.225681,-0.244451 0.256691,-0.244451 0.03101,0 0.10541,-0.06233 0.165331,-0.138506 0.05992,-0.07618 0.121405,-0.12605 0.136629,-0.110826 0.01522,0.01522 0.07267,-0.02622 0.127657,-0.0921 0.05499,-0.06588 0.10079,-0.09603 0.101783,-0.06701 9.93e-4,0.02902 0.0401,-0.0019 0.08691,-0.06873 0.04681,-0.06682 0.107847,-0.107441 0.135648,-0.09026 0.0278,0.01718 0.05055,0.0086 0.05055,-0.01901 0,-0.06033 0.433713,-0.355567 0.434906,-0.296044 4.56e-4,0.0228 0.01877,0.01372 0.04069,-0.0202 0.06193,-0.09579 0.677553,-0.451737 0.727695,-0.420747 0.02457,0.01518 0.04467,0.0054 0.04467,-0.02182 0,-0.09408 1.540955,-0.743138 1.631488,-0.687186 0.0278,0.01718 0.05055,0.009 0.05055,-0.01809 0,-0.07237 1.385578,-0.403823 1.720671,-0.411611 0.157702,-0.0037 0.286769,-0.01887 0.286816,-0.03379 4.7e-5,-0.01492 0.647402,-0.02298 1.438568,-0.0179 1.245324,0.008 1.522192,0.02561 2.061868,0.131167 0.342862,0.06706 0.623385,0.141497 0.623385,0.165408 0,0.02391 0.03416,0.03037 0.0759,0.01435 0.04174,-0.01602 0.09136,-0.0041 0.110256,0.02646 0.0189,0.03057 0.0702,0.04183 0.114007,0.02502 0.04381,-0.01681 0.07965,-0.0043 0.07965,0.0278 0,0.0321 0.03662,0.04431 0.08139,0.02713 0.04476,-0.01718 0.08139,-0.005 0.08139,0.02713 0,0.0321 0.03663,0.04431 0.08139,0.02713 0.04476,-0.01718 0.08139,-0.005 0.08139,0.02713 0,0.0321 0.03663,0.04431 0.08139,0.02713 0.04476,-0.01718 0.08139,-0.005 0.08139,0.02713 0,0.0321 0.03348,0.04552 0.07439,0.02982 0.04092,-0.0157 0.10828,0.0053 0.149697,0.04676 0.04142,0.04142 0.105608,0.0652 0.142645,0.05286 0.03704,-0.01234 0.06734,0.0054 0.06734,0.03954 0,0.03409 0.02442,0.04689 0.05426,0.02845 0.02984,-0.01844 0.05426,-0.0084 0.05426,0.02223 0,0.03067 0.03348,0.04291 0.07439,0.02721 0.04092,-0.0157 0.11126,0.0083 0.156319,0.05338 0.04506,0.04506 0.09704,0.06681 0.115515,0.04834 0.01847,-0.01847 0.03359,-0.0037 0.03359,0.03292 0,0.03658 0.02442,0.05141 0.05426,0.03297 0.02984,-0.01844 0.05426,-0.0077 0.05426,0.02393 0,0.0316 0.01831,0.05262 0.04069,0.04671 0.08033,-0.02122 0.284862,0.07354 0.284862,0.131969 0,0.0328 0.01583,0.04382 0.03518,0.02447 0.04372,-0.04372 0.561675,0.233132 0.561675,0.300215 0,0.02686 0.02459,0.03364 0.05464,0.01507 0.03005,-0.01857 0.06924,0.0043 0.08708,0.05075 0.01784,0.04648 0.05429,0.07101 0.08101,0.0545 0.02672,-0.01651 0.04857,-0.0042 0.04857,0.02744 0,0.0316 0.03663,0.05746 0.08139,0.05746 0.04476,0 0.08139,0.02442 0.08139,0.05426 0,0.02984 0.03052,0.05438 0.06782,0.05452 0.202061,7.68e-4 1.533391,1.150938 2.112794,1.825298 0.463985,0.540026 1.076865,1.383 1.044076,1.436054 -0.01252,0.02026 0.01526,0.05144 0.06175,0.06927 0.04648,0.01784 0.06932,0.05702 0.05075,0.08707 -0.01857,0.03005 -0.0038,0.05464 0.03273,0.05464 0.03658,0 0.05226,0.01424 0.03485,0.03165 -0.01741,0.01741 0.01604,0.07934 0.07433,0.137627 0.05829,0.05829 0.09144,0.129503 0.07366,0.158257 -0.01777,0.02875 -0.005,0.05228 0.02835,0.05228 0.03337,0 0.04557,0.02442 0.02713,0.05426 -0.01844,0.02984 -0.0062,0.05426 0.02713,0.05426 0.03336,0 0.04557,0.02442 0.02713,0.05426 -0.01844,0.02984 -0.0062,0.05426 0.02713,0.05426 0.03336,0 0.04557,0.02442 0.02713,0.05426 -0.01844,0.02984 -0.0062,0.05426 0.02713,0.05426 0.03337,0 0.04557,0.02442 0.02713,0.05426 -0.01844,0.02984 -0.0062,0.05426 0.02713,0.05426 0.03337,0 0.04557,0.02442 0.02713,0.05426 -0.01844,0.02984 -0.0062,0.05426 0.02713,0.05426 0.03337,0 0.04557,0.02442 0.02713,0.05426 -0.01844,0.02984 -0.0062,0.05426 0.02713,0.05426 0.03337,0 0.04557,0.02442 0.02713,0.05426 -0.01844,0.02984 -0.0051,0.05426 0.02973,0.05426 0.0348,0 0.04921,0.03663 0.03203,0.08139 -0.01718,0.04476 -0.0061,0.08139 0.02453,0.08139 0.03067,0 0.04067,0.02442 0.02222,0.05426 -0.01844,0.02984 -0.0062,0.05426 0.02713,0.05426 0.03336,0 0.04557,0.02442 0.02713,0.05426 -0.01844,0.02984 -0.0051,0.05426 0.02973,0.05426 0.0348,0 0.04921,0.03663 0.03203,0.08139 -0.01718,0.04476 -0.01016,0.08139 0.0156,0.08139 0.05739,0 0.342699,0.886076 0.494957,1.537154 0.119169,0.509586 0.174633,0.924692 0.182478,1.365721 0.0027,0.149214 0.02426,0.301299 0.04801,0.337969 0.05229,0.08072 0.04188,1.371201 -0.01106,1.371201 -0.02055,0 -0.03984,0.201438 -0.04285,0.44764 -0.0052,0.427788 -0.22161,1.610387 -0.353135,1.930142 -0.03287,0.0799 -0.06633,0.177706 -0.07437,0.21734 -0.008,0.03963 -0.0327,0.112884 -0.0548,0.162778 -0.0221,0.04989 -0.04535,0.109029 -0.05166,0.131411 -0.0063,0.02238 -0.01634,0.0468 -0.02228,0.05426 -0.0059,0.0075 -0.02182,0.07355 -0.03528,0.146857 -0.01346,0.07331 -0.05437,0.152292 -0.09092,0.175513 -0.03655,0.02322 -0.04515,0.04259 -0.01912,0.04305 0.02604,4.34e-4 0.02014,0.0336 -0.01309,0.07365 -0.03324,0.04005 -0.04437,0.08888 -0.02473,0.108519 0.01964,0.01963 0.0058,0.0357 -0.0308,0.0357 -0.03658,0 -0.05141,0.02442 -0.03297,0.05426 0.01844,0.02984 0.0062,0.05426 -0.02713,0.05426 -0.03337,0 -0.04662,0.02273 -0.02945,0.05051 0.01717,0.02778 0.006,0.06609 -0.02481,0.08514 -0.03082,0.01905 -0.04198,0.05736 -0.02481,0.08514 0.01717,0.02778 0.0039,0.05051 -0.02945,0.05051 -0.03337,0 -0.04557,0.02442 -0.02713,0.05426 0.01844,0.02984 0.0062,0.05426 -0.02713,0.05426 -0.03336,0 -0.04557,0.02442 -0.02713,0.05426 0.01844,0.02984 0.0062,0.05426 -0.02713,0.05426 -0.03336,0 -0.04557,0.02442 -0.02713,0.05426 0.01844,0.02984 0.0062,0.05426 -0.02713,0.05426 -0.03336,0 -0.04557,0.02442 -0.02713,0.05426 0.01844,0.02984 0.0062,0.05426 -0.02713,0.05426 -0.03337,0 -0.04557,0.02442 -0.02713,0.05426 0.01844,0.02984 0.0077,0.05426 -0.02393,0.05426 -0.0316,0 -0.05136,0.01951 -0.0439,0.04336 0.0454,0.145106 -1.016219,1.682346 -1.311552,1.899152 -0.09352,0.06865 -0.158395,0.143655 -0.144169,0.166671 0.01422,0.02302 -0.192638,0.259338 -0.459696,0.525158 -0.267058,0.26582 -0.485559,0.461695 -0.485559,0.435277 0,-0.02642 -0.11598,0.07181 -0.257732,0.218274 -0.241775,0.249818 -1.26153,0.990519 -1.26153,0.916313 0,-0.01869 -0.0367,0.0027 -0.08156,0.04757 -0.123722,0.123721 -0.87835,0.528529 -1.002732,0.537899 -0.06018,0.0045 -0.109417,0.0289 -0.109417,0.05416 0,0.02525 -0.02442,0.03082 -0.05426,0.01238 -0.02984,-0.01844 -0.05426,-0.0077 -0.05426,0.02393 0,0.0316 -0.01831,0.05227 -0.04069,0.04593 -0.02238,-0.0063 -0.09242,0.01722 -0.155644,0.05235 -0.06322,0.03513 -0.130368,0.04846 -0.149213,0.02961 -0.01884,-0.01884 -0.03426,-0.0032 -0.03426,0.03484 0,0.03914 -0.0353,0.05556 -0.08139,0.03788 -0.04476,-0.01718 -0.08139,-0.0061 -0.08139,0.02453 0,0.03067 -0.02442,0.04067 -0.05426,0.02222 -0.02984,-0.01844 -0.05426,-0.0051 -0.05426,0.02973 0,0.0348 -0.03663,0.04921 -0.08139,0.03204 -0.04476,-0.01718 -0.08139,-0.005 -0.08139,0.02713 0,0.0321 -0.03663,0.04431 -0.08139,0.02713 -0.04476,-0.01718 -0.08139,-0.005 -0.08139,0.02713 0,0.0321 -0.03663,0.04431 -0.08139,0.02713 -0.04476,-0.01718 -0.08139,-0.005 -0.08139,0.02713 0,0.0321 -0.03663,0.04431 -0.08139,0.02713 -0.04476,-0.01718 -0.08139,-0.01239 -0.08139,0.01064 0,0.09223 -1.822243,0.450445 -2.231954,0.438762 -0.100423,-0.0029 -0.426754,0.01196 -0.725181,0.03294 -0.298426,0.02098 -0.555061,0.02489 -0.5703,0.0087 z"
     id="path4552"
     inkscape:connector-curvature="0" /><path
     style="fill:#ffffff;stroke-width:0.05425936"
     d="m 49.750407,38.910669 c -7.4436,-0.02113 -10.046872,-0.04461 -10.151311,-0.09156 -0.34508,-0.155154 -0.580635,-0.64525 -0.481934,-1.002714 0.06172,-0.223543 0.329423,-0.614093 0.471477,-0.687843 0.05834,-0.03029 4.162324,-0.04754 10.351676,-0.04351 8.228273,0.0053 10.295045,0.02052 10.457546,0.07678 0.237248,0.08213 0.469132,0.427803 0.514654,0.767196 0.03928,0.292839 -0.14525,0.665832 -0.40904,0.826808 -0.109792,0.067 -0.207761,0.141171 -0.217709,0.164825 -0.0099,0.02365 -0.132031,0.03748 -0.271297,0.03072 -0.139266,-0.0068 -4.758094,-0.02507 -10.264062,-0.04069 z"
     id="path4554"
     inkscape:connector-curvature="0" /></svg>