<?xml version="1.0" encoding="UTF-8" standalone="no"?>
<svg
   xmlns:dc="http://purl.org/dc/elements/1.1/"
   xmlns:cc="http://creativecommons.org/ns#"
   xmlns:rdf="http://www.w3.org/1999/02/22-rdf-syntax-ns#"
   xmlns:svg="http://www.w3.org/2000/svg"
   xmlns="http://www.w3.org/2000/svg"
   xmlns:sodipodi="http://sodipodi.sourceforge.net/DTD/sodipodi-0.dtd"
   xmlns:inkscape="http://www.inkscape.org/namespaces/inkscape"
   enable-background="new 0 0 100 100"
   height="100px"
   version="1.1"
   viewBox="0 0 100 100"
   width="100px"
   xml:space="preserve"
   id="svg831"
   sodipodi:docname="white_bishop.svg"
   inkscape:version="0.92.2 (5c3e80d, 2017-08-06)"><metadata
     id="metadata837"><rdf:RDF><cc:Work
         rdf:about=""><dc:format>image/svg+xml</dc:format><dc:type
           rdf:resource="http://purl.org/dc/dcmitype/StillImage" /></cc:Work></rdf:RDF></metadata><defs
     id="defs835" /><sodipodi:namedview
     pagecolor="#ffffff"
     bordercolor="#666666"
     borderopacity="1"
     objecttolerance="10"
     gridtolerance="10"
     guidetolerance="10"
     inkscape:pageopacity="0"
     inkscape:pageshadow="2"
     inkscape:window-width="3840"
     inkscape:window-height="2066"
     id="namedview833"
     showgrid="false"
     inkscape:zoom="18.43"
     inkscape:cx="50"
     inkscape:cy="50"
     inkscape:window-x="-11"
     inkscape:window-y="-11"
     inkscape:window-maximized="1"
     inkscape:current-layer="svg831" /><g
     id="white_exp"><path
       d="M69.878,83.072C69.954,82.726,70,82.369,70,82c0-2.757-2.243-5-5-5h-0.769c-0.131-0.612-0.273-1.218-0.424-1.854   c-1.032-4.367-2.397-10.149-2.73-30.27C63.316,44.381,65,42.386,65,40c0-1.977-1.163-3.674-2.832-4.485   C63.422,33.113,65,29.415,65,26c0-3.21-3.22-7.173-6.948-11.761C55.498,11.095,52,6.79,52,5h-4c0,1.79-3.498,6.095-6.052,9.239   C38.22,18.827,35,22.79,35,26c0,3.415,1.578,7.113,2.832,9.515C36.163,36.326,35,38.023,35,40c0,2.386,1.684,4.381,3.923,4.876   c-0.333,20.121-1.698,25.903-2.73,30.27c-0.15,0.636-0.293,1.242-0.424,1.854H35c-2.757,0-5,2.243-5,5   c0,0.369,0.046,0.726,0.122,1.072C27.229,83.499,25,85.99,25,89c0,3.309,2.691,6,6,6h38c3.309,0,6-2.691,6-6   C75,85.99,72.771,83.499,69.878,83.072z M40,41c-0.542,0-1-0.458-1-1s0.458-1,1-1h20c0.542,0,1,0.458,1,1s-0.458,1-1,1H40z    M43.565,18.603l2.646,5.292l3.578-1.789l-3.461-6.921c1.406-1.747,2.687-3.397,3.672-4.938c1.277,1.998,3.047,4.175,4.948,6.516   C57.502,19.905,61,24.21,61,26c0,3.285-2.095,7.257-3.117,9H42.117C41.095,33.257,39,29.285,39,26   C39,24.541,41.323,21.412,43.565,18.603z M40.085,76.066c1.072-4.537,2.49-10.549,2.836-31.066h14.158   c0.346,20.517,1.764,26.53,2.836,31.066c0.076,0.323,0.145,0.626,0.216,0.934H39.869C39.94,76.692,40.009,76.39,40.085,76.066z    M35,81h30c0.542,0,1,0.458,1,1s-0.458,1-1,1H35c-0.542,0-1-0.458-1-1S34.458,81,35,81z M69,91H31c-1.103,0-2-0.897-2-2   s0.897-2,2-2h38c1.103,0,2,0.897,2,2S70.103,91,69,91z"
       id="path827" /></g><g
     id="black_exp" /><path
     style="fill:#ffffff;stroke-width:0.05425936"
     d="m 30.698352,90.943165 c -0.74353,-0.125635 -1.322074,-0.625759 -1.568086,-1.355536 -0.300766,-0.892201 0.126278,-1.893117 1.003395,-2.351781 l 0.327544,-0.171279 h 19.533369 19.53337 l 0.259943,0.121103 c 0.362577,0.168918 0.8227,0.62177 1.000966,0.985148 0.131071,0.267173 0.149407,0.367667 0.149607,0.819956 2.17e-4,0.44553 -0.01943,0.557398 -0.144655,0.824552 -0.278681,0.59453 -0.848913,1.017721 -1.517522,1.126212 -0.411605,0.06679 -38.182865,0.06838 -38.577931,0.0016 z"
     id="path839"
     inkscape:connector-curvature="0" /><path
     style="fill:#ffffff;stroke-width:0.05425936"
     d="m 34.566917,82.851561 c -0.266613,-0.13197 -0.472618,-0.410602 -0.527424,-0.71337 -0.07713,-0.426072 0.268281,-0.938385 0.720866,-1.069198 0.145764,-0.04213 4.554758,-0.0545 15.374505,-0.04314 l 15.170134,0.01593 0.224052,0.15527 c 0.391399,0.271243 0.537265,0.739485 0.361447,1.160276 -0.112422,0.269064 -0.228109,0.390068 -0.486265,0.508614 -0.208948,0.09595 -0.783262,0.09971 -15.409658,0.100813 l -15.192621,0.0011 -0.235036,-0.11634 z"
     id="path841"
     inkscape:connector-curvature="0" /><path
     style="fill:#ffffff;stroke-width:0.05425936"
     d="m 40.237421,75.52089 c 1.186681,-5.101988 1.764491,-9.473965 2.214059,-16.752577 0.209782,-3.396426 0.462248,-10.257549 0.462248,-12.562254 0,-0.454434 0.01526,-0.902546 0.03391,-0.995804 l 0.03391,-0.16956 h 7.038534 7.038534 l 0.03728,1.912642 c 0.179797,9.225442 0.687995,17.030851 1.447283,22.228803 0.343059,2.348524 0.674507,4.021088 1.481938,7.478196 l 0.0792,0.339121 H 49.998919 39.893518 Z"
     id="path843"
     inkscape:connector-curvature="0" /><path
     style="fill:#ffffff;stroke-width:0.05425936"
     d="m 39.630028,40.895628 c -0.228447,-0.09954 -0.498841,-0.424526 -0.568523,-0.683304 -0.113946,-0.423162 0.130589,-0.894065 0.567287,-1.092429 0.210209,-0.09548 0.637969,-0.09964 10.338652,-0.100495 6.651393,-5.85e-4 10.187006,0.0179 10.316727,0.05393 0.293064,0.0814 0.625755,0.466343 0.67251,0.778131 0.06407,0.427221 -0.142964,0.816976 -0.53469,1.006607 l -0.23379,0.113176 -10.197193,-0.0021 c -8.304902,-0.0017 -10.227587,-0.01537 -10.36098,-0.07349 z"
     id="path845"
     inkscape:connector-curvature="0" /><path
     style="fill:#ffffff;stroke-width:0.05425936"
     d="m 41.734144,34.256647 c -1.607124,-2.895062 -2.546671,-5.621432 -2.697269,-7.826913 -0.04132,-0.605038 0.05544,-1.064008 0.369027,-1.750453 0.528245,-1.156347 1.928681,-3.219562 3.68608,-5.430577 l 0.467777,-0.588517 1.315472,2.631612 1.315472,2.631613 1.793417,-0.896096 c 0.986379,-0.492853 1.800903,-0.902912 1.810053,-0.911242 0.0091,-0.0083 -0.753873,-1.556008 -1.695605,-3.439287 -0.941733,-1.883278 -1.712241,-3.444622 -1.712241,-3.469653 0,-0.02503 0.306856,-0.432622 0.681903,-0.905757 0.954918,-1.204662 1.826118,-2.372815 2.408091,-3.228897 0.273184,-0.401855 0.506158,-0.730646 0.517718,-0.730646 0.01156,0 0.221642,0.293001 0.466849,0.651112 0.706995,1.032534 1.762012,2.421564 3.168337,4.171419 0.716623,0.891675 1.824932,2.271219 2.46291,3.065653 3.056251,3.805763 4.529448,6.048266 4.816422,7.331566 0.2232,0.998116 -0.212122,3.220995 -1.046045,5.341397 -0.328259,0.83466 -1.270631,2.803502 -1.70615,3.564558 l -0.275206,0.480915 H 49.99967 42.118183 Z"
     id="path847"
     inkscape:connector-curvature="0" /></svg>