<?xml version="1.0" encoding="UTF-8" standalone="no"?>
<svg
   xmlns:dc="http://purl.org/dc/elements/1.1/"
   xmlns:cc="http://creativecommons.org/ns#"
   xmlns:rdf="http://www.w3.org/1999/02/22-rdf-syntax-ns#"
   xmlns:svg="http://www.w3.org/2000/svg"
   xmlns="http://www.w3.org/2000/svg"
   xmlns:sodipodi="http://sodipodi.sourceforge.net/DTD/sodipodi-0.dtd"
   xmlns:inkscape="http://www.inkscape.org/namespaces/inkscape"
   enable-background="new 0 0 100 100"
   height="100px"
   version="1.1"
   viewBox="0 0 100 100"
   width="100px"
   xml:space="preserve"
   id="svg6"
   sodipodi:docname="white_queen.svg"
   inkscape:version="0.92.2 (5c3e80d, 2017-08-06)"><metadata
     id="metadata12"><rdf:RDF><cc:Work
         rdf:about=""><dc:format>image/svg+xml</dc:format><dc:type
           rdf:resource="http://purl.org/dc/dcmitype/StillImage" /></cc:Work></rdf:RDF></metadata><defs
     id="defs10" /><sodipodi:namedview
     pagecolor="#ffffff"
     bordercolor="#666666"
     borderopacity="1"
     objecttolerance="10"
     gridtolerance="10"
     guidetolerance="10"
     inkscape:pageopacity="0"
     inkscape:pageshadow="2"
     inkscape:window-width="3840"
     inkscape:window-height="2066"
     id="namedview8"
     showgrid="false"
     inkscape:zoom="13.350176"
     inkscape:cx="50"
     inkscape:cy="50"
     inkscape:window-x="-11"
     inkscape:window-y="-11"
     inkscape:window-maximized="1"
     inkscape:current-layer="svg6" /><g
     id="white_exp"><path
       d="M69.878,83.072C69.954,82.726,70,82.369,70,82c0-2.757-2.243-5-5-5h-0.701c-0.146-0.783-0.308-1.559-0.48-2.377   c-1.07-5.061-2.495-11.818-2.771-33.738C63.303,40.402,65,38.397,65,36c0-2.125-1.338-3.932-3.211-4.655l6.075-15.62l-3.729-1.45   l-0.981,2.523c-2.042-0.88-4.895-1.338-7.588-1.571C55.844,14.538,56,13.787,56,13c0-3.309-2.691-6-6-6s-6,2.691-6,6   c0,0.787,0.156,1.538,0.434,2.227c-2.693,0.232-5.546,0.691-7.588,1.571l-0.981-2.523l-3.729,1.45l6.075,15.62   C36.338,32.068,35,33.875,35,36c0,2.397,1.697,4.402,3.952,4.885c-0.275,21.92-1.7,28.677-2.771,33.738   c-0.173,0.818-0.334,1.594-0.48,2.377H35c-2.757,0-5,2.243-5,5c0,0.369,0.046,0.726,0.122,1.072C27.229,83.499,25,85.99,25,89   c0,3.309,2.691,6,6,6h38c3.309,0,6-2.691,6-6C75,85.99,72.771,83.499,69.878,83.072z M40,37c-0.542,0-1-0.458-1-1s0.458-1,1-1h20   c0.542,0,1,0.458,1,1s-0.458,1-1,1H40z M42.368,31l-2.333-6h19.93l-2.333,6H42.368z M48,13c0-1.103,0.897-2,2-2s2,0.897,2,2   s-0.897,2-2,2S48,14.103,48,13z M50,19c6.18,0,10.222,0.844,11.723,1.48L61.521,21H38.479l-0.202-0.52   C39.778,19.844,43.82,19,50,19z M40.096,75.451C41.198,70.234,42.667,63.267,42.95,41h14.1c0.283,22.267,1.752,29.234,2.854,34.451   c0.114,0.54,0.22,1.046,0.32,1.549H39.775C39.876,76.497,39.981,75.99,40.096,75.451z M35,81h30c0.542,0,1,0.458,1,1s-0.458,1-1,1   H35c-0.542,0-1-0.458-1-1S34.458,81,35,81z M69,91H31c-1.103,0-2-0.897-2-2s0.897-2,2-2h38c1.103,0,2,0.897,2,2S70.103,91,69,91z"
       id="path2" /></g><g
     id="black_exp" /><path
     style="fill:#ffffff;stroke-width:0.07490538"
     d="m 49.476097,14.888295 c -0.193391,-0.05418 -0.412489,-0.144641 -0.486885,-0.20103 -0.625128,-0.473829 -0.919879,-0.997667 -0.921039,-1.636889 -0.0011,-0.633041 0.136515,-0.974699 0.567409,-1.408214 0.659533,-0.663543 1.481591,-0.787127 2.294132,-0.344886 0.65695,0.357557 1.039323,1.004964 1.027108,1.739027 -0.02076,1.247567 -1.280692,2.188172 -2.480725,1.851992 z"
     id="path14"
     inkscape:connector-curvature="0" /><path
     style="fill:#ffffff;stroke-width:0.07490538"
     d="m 38.411637,20.744793 c -0.04541,-0.130274 -0.07399,-0.245172 -0.06351,-0.255329 0.06612,-0.06404 1.35008,-0.43377 2.04151,-0.587868 5.783075,-1.28887 15.955043,-1.10209 20.655158,0.379275 0.597341,0.188267 0.661674,0.25937 0.502976,0.555899 -0.07614,0.142278 -0.284355,0.144886 -11.565554,0.144886 H 38.494208 Z"
     id="path16"
     inkscape:connector-curvature="0" /><path
     style="fill:#ffffff;stroke-width:0.07490538"
     d="m 42.353266,30.85044 c -0.344078,-0.861531 -2.179638,-5.597452 -2.206433,-5.692809 -0.03495,-0.124367 0.470617,-0.131085 9.865654,-0.131085 5.774637,0 9.892081,0.02787 9.87752,0.06685 -0.01373,0.03677 -0.53058,1.368102 -1.148549,2.958524 l -1.123581,2.891676 -7.613608,2.4e-4 c -6.021185,1.88e-4 -7.62143,-0.01935 -7.651003,-0.09339 z"
     id="path18"
     inkscape:connector-curvature="0" /><path
     style="fill:#ffffff;stroke-width:0.07490538"
     d="m 39.510443,36.819246 c -0.409736,-0.22232 -0.563527,-0.833643 -0.325512,-1.293913 0.254944,-0.493008 -0.487688,-0.461466 10.864883,-0.461466 h 10.304309 l 0.279796,0.256413 c 0.259895,0.238177 0.279795,0.286534 0.279795,0.679905 0,0.39337 -0.0199,0.441728 -0.279795,0.679904 l -0.279796,0.256413 -10.319315,-0.003 c -8.9815,-0.0026 -10.345899,-0.01742 -10.524365,-0.114257 z"
     id="path20"
     inkscape:connector-curvature="0" /><path
     style="fill:#ffffff;stroke-width:0.07490538"
     d="m 39.863336,76.729985 c 0.17773,-0.707757 0.968474,-4.744294 1.192932,-6.089596 1.069172,-6.408155 1.636927,-14.544123 1.888062,-27.056035 l 0.05074,-2.528056 h 6.991627 6.991627 l 0.03412,0.168537 c 0.01877,0.09269 0.05367,1.583686 0.07757,3.313312 0.148851,10.773425 0.819675,20.028847 1.921982,26.517755 0.204751,1.205306 1.070232,5.549671 1.15277,5.786441 0.02601,0.07461 -2.03847,0.09363 -10.160262,0.09363 H 39.811609 Z"
     id="path22"
     inkscape:connector-curvature="0" /><path
     style="fill:#ffffff;stroke-width:0.07490538"
     d="m 34.50004,82.802286 c -0.279453,-0.173435 -0.439905,-0.483208 -0.439905,-0.849294 0,-0.266736 0.04503,-0.360632 0.290809,-0.606413 l 0.290809,-0.290809 h 15.315886 15.315885 l 0.25452,0.170979 c 0.299429,0.201148 0.492617,0.664963 0.411532,0.988029 -0.02942,0.117205 -0.166103,0.325719 -0.303748,0.463364 l -0.250263,0.250263 -15.344367,-0.002 c -14.05269,-0.0018 -15.360933,-0.01228 -15.541158,-0.124126 z"
     id="path24"
     inkscape:connector-curvature="0" /><path
     style="fill:#ffffff;stroke-width:0.07490538"
     d="m 30.202508,90.767039 c -1.547254,-0.722045 -1.524815,-2.856786 0.03745,-3.563145 0.336171,-0.151995 0.388962,-0.152406 19.700115,-0.153631 13.112577,-8.31e-4 19.453104,0.02379 19.642043,0.07626 0.416026,0.115541 0.875397,0.507173 1.133234,0.966127 0.553899,0.98595 0.115944,2.219006 -0.962804,2.710758 -0.287475,0.131046 -1.087657,0.13662 -19.737568,0.137497 l -19.437946,9.13e-4 -0.374527,-0.174778 z"
     id="path26"
     inkscape:connector-curvature="0" /></svg>