<?xml version="1.0" encoding="UTF-8" standalone="no"?>
<svg
   xmlns:dc="http://purl.org/dc/elements/1.1/"
   xmlns:cc="http://creativecommons.org/ns#"
   xmlns:rdf="http://www.w3.org/1999/02/22-rdf-syntax-ns#"
   xmlns:svg="http://www.w3.org/2000/svg"
   xmlns="http://www.w3.org/2000/svg"
   xmlns:sodipodi="http://sodipodi.sourceforge.net/DTD/sodipodi-0.dtd"
   xmlns:inkscape="http://www.inkscape.org/namespaces/inkscape"
   enable-background="new 0 0 100 100"
   height="100px"
   version="1.1"
   viewBox="0 0 100 100"
   width="100px"
   xml:space="preserve"
   id="svg6"
   sodipodi:docname="white_knight.svg"
   inkscape:version="0.92.2 (5c3e80d, 2017-08-06)"><metadata
     id="metadata12"><rdf:RDF><cc:Work
         rdf:about=""><dc:format>image/svg+xml</dc:format><dc:type
           rdf:resource="http://purl.org/dc/dcmitype/StillImage" /></cc:Work></rdf:RDF></metadata><defs
     id="defs10" /><sodipodi:namedview
     pagecolor="#ffffff"
     bordercolor="#666666"
     borderopacity="1"
     objecttolerance="10"
     gridtolerance="10"
     guidetolerance="10"
     inkscape:pageopacity="0"
     inkscape:pageshadow="2"
     inkscape:window-width="3840"
     inkscape:window-height="2066"
     id="namedview8"
     showgrid="false"
     inkscape:zoom="9.44"
     inkscape:cx="50"
     inkscape:cy="50"
     inkscape:window-x="-11"
     inkscape:window-y="-11"
     inkscape:window-maximized="1"
     inkscape:current-layer="svg6" /><g
     id="white_exp"><path
       d="M72.878,83.072C72.954,82.726,73,82.369,73,82c0-2.757-2.243-5-5-5h-1.957c0.426-11.358,4.38-20.888,7.615-28.635   C76.398,44.246,78,39.307,78,34C78,19.664,66.336,8,52,8h-2v5h-7c-4.74,0-8.626,3.686-8.967,8.34   c-0.568,0.454-1.87,1.254-2.954,1.918C25.871,26.453,18,31.281,18,38c0,4.739,3.685,8.625,8.338,8.966   C27.154,49.311,29.381,51,32,51c2.831,0,5.21-1.971,5.838-4.612l4.819-2.065c0.695,0.497,1.451,0.869,2.235,1.131   C44.178,50.833,39.571,55,34,55h-2.19l2,22H32c-2.757,0-5,2.243-5,5c0,0.369,0.046,0.726,0.122,1.072C24.229,83.499,22,85.99,22,89   c0,3.309,2.691,6,6,6h44c3.309,0,6-2.691,6-6C78,85.99,75.771,83.499,72.878,83.072z M36.176,58.843   c6.657-0.972,11.896-6.335,12.704-13.044c1.731-0.262,3.397-1.054,4.727-2.385c1.605-1.605,2.49-3.74,2.49-6.01   s-0.884-4.405-2.49-6.01l-2.828,2.828c1.754,1.755,1.754,4.609,0,6.364c-1.755,1.754-4.609,1.754-6.364,0l-0.958-0.958L34,43.681   V45c0,1.103-0.897,2-2,2c-1.052,0-1.907-0.818-1.985-1.851l3.234-2.587l-2.499-3.123l-4.373,3.499C23.917,42.626,22,40.543,22,38   c0-4.48,6.993-8.77,11.171-11.332C36.487,24.634,38,23.706,38,22c0-2.757,2.243-5,5-5h7v3h4v-7.91C65.198,13.104,74,22.543,74,34   c0,12.131-9.869,22-22,22v4c5.367,0,10.36-1.635,14.506-4.433C64.25,61.81,62.313,68.913,62.035,77H37.827L36.176,58.843z M32,81   h36c0.542,0,1,0.458,1,1s-0.458,1-1,1H32c-0.542,0-1-0.458-1-1S31.458,81,32,81z M72,91H28c-1.103,0-2-0.897-2-2s0.897-2,2-2h44   c1.103,0,2,0.897,2,2S73.103,91,72,91z M44.971,19.285l2.058,3.43l-5,3l-2.058-3.43L44.971,19.285z M25.891,35.336l2.219,3.328   l-3,2l-2.219-3.328L25.891,35.336z"
       id="path2" /></g><g
     id="black_exp" /><path
     style="fill:#ffffff;stroke-width:0.10593221"
     d="m 37.838983,76.775957 c 0,-0.10691 -0.357521,-4.119015 -0.794491,-8.915787 C 36.607521,63.063397 36.25,59.080525 36.25,59.009343 c 0,-0.07608 0.294697,-0.183987 0.715042,-0.261819 3.064267,-0.567381 6.263778,-2.430223 8.365126,-4.870405 1.763625,-2.048002 3.034177,-4.688649 3.455154,-7.181008 l 0.136344,-0.807213 0.947006,-0.273809 c 1.624756,-0.469766 2.792965,-1.16315 3.867135,-2.29532 1.06854,-1.126234 1.791942,-2.426311 2.171409,-3.902396 0.251732,-0.97921 0.257148,-2.999362 0.01074,-4.006255 -0.317003,-1.295368 -1.125387,-2.820145 -1.962733,-3.702115 l -0.378859,-0.399046 -1.406826,1.403931 c -0.773755,0.772162 -1.406827,1.449654 -1.406827,1.505539 0,0.05588 0.115755,0.22339 0.257234,0.372234 0.802783,0.844579 1.200047,2.51345 0.903911,3.79726 -0.285561,1.23797 -1.247517,2.438895 -2.413295,3.012806 -0.670734,0.3302 -0.75939,0.346154 -1.923588,0.346154 -1.132462,0 -1.265677,-0.02218 -1.847809,-0.307639 -0.366624,-0.179783 -0.968689,-0.633745 -1.448639,-1.092287 l -0.821279,-0.784646 -4.76562,2.040598 -4.76562,2.040598 -0.03574,1.019576 c -0.03077,0.877871 -0.07229,1.072868 -0.298751,1.403034 -0.272413,0.397167 -0.791752,0.74014 -1.303458,0.860808 -0.3642,0.08588 -1.08665,-0.09955 -1.48051,-0.38 -0.31476,-0.22413 -0.714061,-0.907776 -0.712928,-1.220609 4.24e-4,-0.117191 0.607279,-0.671797 1.588983,-1.452177 0.873563,-0.694417 1.588296,-1.284013 1.588296,-1.310214 0,-0.0262 -0.566959,-0.756749 -1.259909,-1.623439 l -1.25991,-1.575799 -2.190656,1.755241 c -2.509519,2.010727 -2.320909,1.947057 -3.745456,1.264361 -1.783594,-0.854765 -2.906976,-2.788902 -2.739019,-4.715795 0.13279,-1.523425 0.906043,-2.928491 2.553703,-4.640288 1.81819,-1.888964 3.982647,-3.490293 8.482349,-6.275487 2.704772,-1.674182 3.370225,-2.138288 4.03909,-2.816981 0.604388,-0.613268 0.886757,-1.264719 0.886757,-2.045823 0,-0.644929 0.318813,-1.767426 0.674245,-2.373925 0.712582,-1.215928 2.126956,-2.166081 3.563044,-2.393591 0.378707,-0.06 2.249735,-0.109445 4.157839,-0.109885 l 3.469279,-8e-4 v 1.536017 1.536017 h 2.065678 2.065678 v -3.972458 c 0,-2.184852 0.03575,-3.972177 0.07945,-3.971833 0.398339,0.0031 2.420692,0.379554 3.362869,0.625935 8.991836,2.351378 15.448446,9.955465 16.365025,19.273435 0.701955,7.136094 -2.392578,14.410425 -8.091685,19.02116 -3.04855,2.46636 -6.760385,4.088634 -10.669931,4.66334 -0.619235,0.09103 -1.435575,0.165506 -1.814089,0.165506 -0.378513,0 -0.837173,0.02979 -1.019244,0.06621 l -0.331038,0.06621 v 2.015748 2.015746 l 1.456568,-0.06657 c 2.520836,-0.11521 5.19423,-0.650663 7.509882,-1.504149 1.224626,-0.451363 3.464319,-1.524663 4.592872,-2.200984 0.43697,-0.261867 0.804862,-0.466734 0.817537,-0.455258 0.01268,0.01147 -0.28257,0.947994 -0.6561,2.081152 -2.083814,6.321549 -3.163709,11.545254 -3.563003,17.235077 l -0.128236,1.82733 H 49.898235 c -11.627111,0 -12.059252,-0.007 -12.059252,-0.194382 z M 26.689619,39.661016 c 0.771981,-0.514771 1.403601,-0.983914 1.403601,-1.042541 0,-0.14186 -2.101119,-3.279492 -2.196115,-3.279492 -0.188853,0 -2.999536,1.957826 -2.972384,2.070462 0.07229,0.299866 2.158623,3.30647 2.255119,3.249836 0.0584,-0.03428 0.737798,-0.483494 1.509779,-0.998265 z M 44.652073,24.216102 c 1.318464,-0.786547 2.398514,-1.463065 2.40011,-1.503375 0.0029,-0.0732 -1.868598,-3.240855 -2.009544,-3.401308 -0.06066,-0.06906 -4.694066,2.608905 -5.022021,2.902568 -0.05474,0.04902 0.237228,0.644917 0.680204,1.388277 1.181849,1.983267 1.27024,2.112805 1.417337,2.077102 0.07519,-0.01825 1.21545,-0.676718 2.533914,-1.463264 z"
     id="path14"
     inkscape:connector-curvature="0" /><path
     style="fill:#ffffff;stroke-width:0.10593221"
     d="M 31.473871,82.766758 C 31.008187,82.409217 30.93919,81.791917 31.319094,81.381994 l 0.259773,-0.280299 h 18.418796 18.418796 l 0.251517,0.267727 c 0.164259,0.174847 0.251516,0.394342 0.251516,0.632697 0,0.238354 -0.08726,0.457849 -0.251516,0.632697 l -0.251517,0.267726 -18.387255,-0.0034 c -14.286897,-0.0026 -18.424736,-0.03215 -18.555333,-0.132415 z"
     id="path16"
     inkscape:connector-curvature="0" /><path
     style="fill:#ffffff;stroke-width:0.10593221"
     d="m 27.248914,90.785649 c -0.484151,-0.209997 -0.724331,-0.436783 -0.967813,-0.913844 -0.436115,-0.854491 -0.140437,-1.9587 0.667694,-2.493509 l 0.440373,-0.291432 22.412407,-0.029 c 24.886578,-0.0322 22.956584,-0.08692 23.620913,0.66971 0.683836,0.778846 0.674437,1.840635 -0.02281,2.576368 -0.663452,0.700076 1.158055,0.649848 -23.401574,0.645298 -19.689431,-0.0036 -22.425798,-0.02332 -22.749192,-0.163594 z"
     id="path18"
     inkscape:connector-curvature="0" /></svg>