<?xml version="1.0" encoding="UTF-8" standalone="no"?>
<svg
   xmlns:dc="http://purl.org/dc/elements/1.1/"
   xmlns:cc="http://creativecommons.org/ns#"
   xmlns:rdf="http://www.w3.org/1999/02/22-rdf-syntax-ns#"
   xmlns:svg="http://www.w3.org/2000/svg"
   xmlns="http://www.w3.org/2000/svg"
   xmlns:sodipodi="http://sodipodi.sourceforge.net/DTD/sodipodi-0.dtd"
   xmlns:inkscape="http://www.inkscape.org/namespaces/inkscape"
   enable-background="new 0 0 100 100"
   height="100px"
   version="1.1"
   viewBox="0 0 100 100"
   width="100px"
   xml:space="preserve"
   id="svg865"
   sodipodi:docname="white_king.svg"
   inkscape:version="0.92.2 (5c3e80d, 2017-08-06)"><metadata
     id="metadata871"><rdf:RDF><cc:Work
         rdf:about=""><dc:format>image/svg+xml</dc:format><dc:type
           rdf:resource="http://purl.org/dc/dcmitype/StillImage" /></cc:Work></rdf:RDF></metadata><defs
     id="defs869" /><sodipodi:namedview
     pagecolor="#ffffff"
     bordercolor="#666666"
     borderopacity="1"
     objecttolerance="10"
     gridtolerance="10"
     guidetolerance="10"
     inkscape:pageopacity="0"
     inkscape:pageshadow="2"
     inkscape:window-width="3840"
     inkscape:window-height="2066"
     id="namedview867"
     showgrid="false"
     inkscape:zoom="13.350176"
     inkscape:cx="50"
     inkscape:cy="50"
     inkscape:window-x="-11"
     inkscape:window-y="-11"
     inkscape:window-maximized="1"
     inkscape:current-layer="svg865" /><g
     id="white_exp"><path
       d="M69.878,83.072C69.954,82.726,70,82.369,70,82c0-2.757-2.243-5-5-5h-0.701c-0.146-0.783-0.308-1.559-0.48-2.377   c-1.07-5.061-2.495-11.818-2.771-33.738C63.303,40.402,65,38.397,65,36c0-2.188-1.421-4.031-3.382-4.708l3.843-12.488L52,13.626V11   h2V7h-2V5h-4v2h-2v4h2v2.626l-13.461,5.178l3.843,12.488C36.421,31.969,35,33.813,35,36c0,2.397,1.697,4.402,3.952,4.885   c-0.275,21.92-1.7,28.677-2.771,33.738c-0.173,0.818-0.334,1.594-0.48,2.377H35c-2.757,0-5,2.243-5,5   c0,0.369,0.046,0.726,0.122,1.072C27.229,83.499,25,85.99,25,89c0,3.309,2.691,6,6,6h38c3.309,0,6-2.691,6-6   C75,85.99,72.771,83.499,69.878,83.072z M40,37c-0.542,0-1-0.458-1-1s0.458-1,1-1h20c0.542,0,1,0.458,1,1s-0.458,1-1,1H40z    M59.369,25l-1.847,6H42.478l-1.847-6H59.369z M39.972,21L50,17.143L60.028,21H39.972z M40.096,75.451   C41.198,70.234,42.667,63.267,42.95,41h14.1c0.283,22.267,1.752,29.234,2.854,34.451c0.114,0.54,0.22,1.046,0.32,1.549H39.775   C39.876,76.497,39.981,75.99,40.096,75.451z M35,81h30c0.542,0,1,0.458,1,1s-0.458,1-1,1H35c-0.542,0-1-0.458-1-1S34.458,81,35,81z    M69,91H31c-1.103,0-2-0.897-2-2s0.897-2,2-2h38c1.103,0,2,0.897,2,2S70.103,91,69,91z"
       id="path861" /></g><g
     id="black_exp" /><path
     style="fill:#ffffff;stroke-width:0.07490538"
     d="m 40.2236,20.954038 c 0.05973,-0.05285 9.694543,-3.742075 9.77355,-3.742346 0.08221,-2.83e-4 9.708737,3.687106 9.76427,3.740151 0.01716,0.0164 -4.378845,0.02981 -9.768911,0.02981 -5.390066,0 -9.786075,-0.01243 -9.768909,-0.02762 z"
     id="path1416"
     inkscape:connector-curvature="0" /><path
     style="fill:#ffffff;stroke-width:0.07490538"
     d="m 41.594121,28.004035 -0.90258,-2.940036 9.288082,-0.01902 c 5.108445,-0.01046 9.297846,-0.0093 9.30978,0.0027 0.01193,0.01193 -0.381187,1.330663 -0.873602,2.93051 -0.492416,1.599847 -0.895301,2.921658 -0.895301,2.937359 0,0.0157 -3.380355,0.02855 -7.511899,0.02855 h -7.511899 z"
     id="path1418"
     inkscape:connector-curvature="0" /><path
     style="fill:#ffffff;stroke-width:0.07490538"
     d="m 39.460655,36.765523 c -0.361378,-0.242763 -0.508142,-0.681852 -0.358938,-1.073873 0.06313,-0.165858 0.216717,-0.360419 0.361598,-0.458054 l 0.251859,-0.169729 h 10.315763 10.315764 l 0.198862,0.156425 c 0.545489,0.429082 0.545489,1.130703 0,1.559785 l -0.198862,0.156425 H 50.030937 39.715174 Z"
     id="path1420"
     inkscape:connector-curvature="0" /><path
     style="fill:#ffffff;stroke-width:0.07490538"
     d="m 39.867377,76.729985 c 1.102088,-5.246184 1.54651,-7.92501 1.954134,-11.778871 0.618471,-5.847296 0.867839,-10.650832 1.136445,-21.891097 l 0.04788,-2.003719 h 6.987375 6.987374 l 0.04173,1.067401 c 0.02295,0.587071 0.07773,2.702212 0.121745,4.700313 0.272671,12.379395 0.999691,20.293597 2.553877,27.801027 0.244339,1.180263 0.444251,2.183059 0.444251,2.228435 0,0.05966 -2.812756,0.0825 -10.159042,0.0825 H 39.824104 Z"
     id="path1422"
     inkscape:connector-curvature="0" /><path
     style="fill:#ffffff;stroke-width:0.07490538"
     d="m 34.506764,82.811149 c -0.590842,-0.320588 -0.578655,-1.27878 0.02077,-1.632868 0.190167,-0.112334 1.475732,-0.122487 15.476535,-0.122231 14.806986,2.71e-4 15.276123,0.0045 15.499851,0.140968 0.541934,0.33047 0.604973,1.039142 0.132107,1.485113 l -0.261127,0.246274 -15.331543,-0.003 c -13.414811,-0.0026 -15.357178,-0.01691 -15.536591,-0.114257 z"
     id="path1424"
     inkscape:connector-curvature="0" /><path
     style="fill:#ffffff;stroke-width:0.07490538"
     d="m 30.363795,90.84395 c -0.875298,-0.33725 -1.360486,-1.083341 -1.292309,-1.987232 0.05629,-0.746307 0.449371,-1.306043 1.146003,-1.631877 l 0.374527,-0.175177 19.372349,-7.32e-4 c 21.284762,-8.04e-4 19.67756,-0.0364 20.290928,0.449397 0.674764,0.534422 0.88153,1.605986 0.464079,2.40508 -0.233809,0.447561 -0.695313,0.842973 -1.122272,0.96155 -0.422663,0.117384 -38.927635,0.09677 -39.233305,-0.02101 z"
     id="path1426"
     inkscape:connector-curvature="0" /></svg>