<?xml version="1.0" encoding="UTF-8" standalone="no"?>
<svg
   xmlns:dc="http://purl.org/dc/elements/1.1/"
   xmlns:cc="http://creativecommons.org/ns#"
   xmlns:rdf="http://www.w3.org/1999/02/22-rdf-syntax-ns#"
   xmlns:svg="http://www.w3.org/2000/svg"
   xmlns="http://www.w3.org/2000/svg"
   xmlns:sodipodi="http://sodipodi.sourceforge.net/DTD/sodipodi-0.dtd"
   xmlns:inkscape="http://www.inkscape.org/namespaces/inkscape"
   enable-background="new 0 0 100 100"
   height="100px"
   version="1.1"
   viewBox="0 0 100 100"
   width="100px"
   xml:space="preserve"
   id="svg6"
   sodipodi:docname="white_rook.svg"
   inkscape:version="0.92.2 (5c3e80d, 2017-08-06)"><metadata
     id="metadata12"><rdf:RDF><cc:Work
         rdf:about=""><dc:format>image/svg+xml</dc:format><dc:type
           rdf:resource="http://purl.org/dc/dcmitype/StillImage" /></cc:Work></rdf:RDF></metadata><defs
     id="defs10" /><sodipodi:namedview
     pagecolor="#ffffff"
     bordercolor="#666666"
     borderopacity="1"
     objecttolerance="10"
     gridtolerance="10"
     guidetolerance="10"
     inkscape:pageopacity="0"
     inkscape:pageshadow="2"
     inkscape:window-width="3840"
     inkscape:window-height="2066"
     id="namedview8"
     showgrid="false"
     inkscape:zoom="13.350176"
     inkscape:cx="50"
     inkscape:cy="50"
     inkscape:window-x="-11"
     inkscape:window-y="-11"
     inkscape:window-maximized="1"
     inkscape:current-layer="svg6" /><g
     id="white_exp"><path
       d="M73.878,83.072C73.954,82.726,74,82.369,74,82c0-2.506-1.859-4.567-4.267-4.926c-0.271-0.754-0.567-1.482-0.878-2.233   c-2-4.832-4.718-11.416-4.849-37.842C66.76,36.996,69,34.755,69,32c0-0.629-0.13-1.226-0.343-1.781C70.06,29.333,71,27.778,71,26   V16v-6V8H60v6h-2V8H42v6h-2V8H29v2v6v10c0,1.778,0.94,3.333,2.343,4.219C31.13,30.774,31,31.371,31,32c0,2.755,2.24,4.996,4.994,5   c-0.131,26.426-2.85,33.01-4.849,37.842c-0.311,0.751-0.606,1.479-0.878,2.233C27.859,77.433,26,79.494,26,82   c0,0.369,0.046,0.726,0.122,1.072C23.229,83.499,21,85.99,21,89c0,3.309,2.691,6,6,6h46c3.309,0,6-2.691,6-6   C79,85.99,76.771,83.499,73.878,83.072z M30,82c0-0.542,0.458-1,1-1h38c0.542,0,1,0.458,1,1s-0.458,1-1,1H31   C30.458,83,30,82.542,30,82z M33,12h3v6h10v-6h8v6h10v-6h3v4v10c0,0.542-0.458,1-1,1H34c-0.542,0-1-0.458-1-1V16V12z M35,32   c0-0.542,0.458-1,1-1h28c0.542,0,1,0.458,1,1s-0.458,1-1,1H36C35.458,33,35,32.542,35,32z M39.995,37h20.01   c0.135,27.239,3.028,34.233,5.154,39.371c0.091,0.22,0.169,0.419,0.255,0.629H34.586c0.085-0.209,0.164-0.409,0.255-0.629   C36.967,71.233,39.86,64.239,39.995,37z M73,91H27c-1.103,0-2-0.897-2-2s0.897-2,2-2h46c1.103,0,2,0.897,2,2S74.103,91,73,91z"
       id="path2" /></g><g
     id="black_exp" /><path
     style="fill:#ffffff;stroke-width:0.07490538"
     d="m 33.528148,26.804056 c -0.548992,-0.366751 -0.516442,0.119313 -0.516572,-7.713761 l -1.16e-4,-7.022379 h 1.459795 1.459796 l 0.01959,2.977489 0.01958,2.977489 5.037387,0.01925 5.037387,0.01925 v -2.996743 -2.996742 h 3.969985 3.969985 v 2.996215 2.996215 h 5.018661 5.01866 v -2.996215 -2.996215 h 1.460655 1.460655 l -3e-4,7.097285 c -2.99e-4,6.986474 -0.0026,7.101155 -0.15145,7.345235 -0.303879,0.498451 0.959968,0.46365 -16.838288,0.46365 h -16.17089 z"
     id="path14"
     inkscape:connector-curvature="0" /><path
     style="fill:#ffffff;stroke-width:0.07490538"
     d="m 35.562862,32.829645 c -0.525284,-0.281713 -0.674256,-1.003537 -0.291655,-1.413168 0.396415,-0.424421 -0.600525,-0.39751 14.721328,-0.397384 13.315885,1.1e-4 14.157116,0.0078 14.398955,0.131085 0.360088,0.183613 0.550091,0.471755 0.550091,0.83422 0,0.358326 -0.162822,0.63449 -0.492658,0.835604 -0.235037,0.143311 -0.496481,0.14596 -14.43511,0.146235 -13.605671,2.68e-4 -14.206347,-0.0054 -14.450951,-0.136592 z"
     id="path16"
     inkscape:connector-curvature="0" /><path
     style="fill:#ffffff;stroke-width:0.07490538"
     d="m 34.802512,76.580174 c 0.07752,-0.19569 0.350013,-0.878266 0.605538,-1.516834 1.59015,-3.973857 2.581767,-8.013798 3.291051,-13.408063 0.815333,-6.200782 1.203852,-13.254458 1.352235,-24.550238 9.77e-4,-0.07443 2.044305,-0.09363 9.963645,-0.09363 h 9.962416 l 7.49e-4,1.479381 c 8.98e-4,1.844408 0.120814,6.846961 0.224885,9.381899 0.273933,6.672361 0.783693,12.20193 1.54278,16.735147 0.730333,4.361497 1.59357,7.420792 3.198564,11.335644 l 0.406899,0.992496 H 50.006432 34.66159 l 0.140947,-0.3558 z"
     id="path18"
     inkscape:connector-curvature="0" /><path
     style="fill:#ffffff;stroke-width:0.07490538"
     d="m 30.364029,82.682131 c -0.472867,-0.445971 -0.409828,-1.154643 0.132106,-1.485113 0.224146,-0.136684 0.780334,-0.140696 19.546385,-0.140968 l 19.315673,-2.8e-4 0.29081,0.290809 c 0.24578,0.245781 0.290809,0.339677 0.290809,0.606413 0,0.3725 -0.16466,0.682921 -0.452416,0.852902 -0.190546,0.112558 -1.777488,0.122511 -19.534818,0.122511 H 30.625155 Z"
     id="path20"
     inkscape:connector-curvature="0" /><path
     style="fill:#ffffff;stroke-width:0.07490538"
     d="m 26.316979,90.833307 c -0.430242,-0.153363 -0.807648,-0.493406 -1.039499,-0.936588 -0.414227,-0.79179 -0.204941,-1.865982 0.467279,-2.39839 0.615409,-0.487412 -1.395784,-0.450291 24.298366,-0.448483 23.350236,0.0016 23.380213,0.0018 23.716861,0.154048 0.413745,0.18707 0.785008,0.533432 0.997324,0.930435 0.226009,0.422604 0.226009,1.300219 0,1.722823 -0.212316,0.397003 -0.583579,0.743365 -0.997324,0.930435 -0.336701,0.152235 -0.362955,0.152401 -23.745005,0.150761 -19.712454,-0.0014 -23.453725,-0.01797 -23.698002,-0.105041 z"
     id="path22"
     inkscape:connector-curvature="0" /></svg>